<?xml version="1.0" encoding="utf-8"?>
<!-- Generator: Adobe Illustrator 20.1.0, SVG Export Plug-In . SVG Version: 6.00 Build 0)  -->
<svg version="1.1" id="Layer_1" xmlns="http://www.w3.org/2000/svg" xmlns:xlink="http://www.w3.org/1999/xlink" x="0px" y="0px"
	 viewBox="0 0 158.4 158.4" style="enable-background:new 0 0 158.4 158.4;" xml:space="preserve">
<style type="text/css">
	.st0{fill:#FFFFFF;fill-opacity:0;}
	.st1{fill:#E9E8E8;}
	.st2{fill:#E64D3C;}
	.st3{enable-background:new    ;}
	.st4{fill:#FFFFFF;}
	.st5{fill:#383938;}
	.st6{fill:#B7B7B8;}
</style>
<title>13</title>
<rect class="st0" width="158.4" height="158.4"/>
<g>
	<g>
		<polygon class="st1" points="149.6,117.1 149.6,55.7 8.8,55.7 8.8,132.1 134.5,132.1 		"/>
		<rect x="8.8" y="26.3" class="st2" width="140.8" height="29.4"/>
		<g class="st3">
			<path class="st4" d="M44.1,42.8v8.9h-4.3V33.8l2.9-2.9h7v3.9h-5.6v4h5.1v3.9H44.1z"/>
			<path class="st4" d="M59.6,51.7L57,44.2h-1.1v7.5h-4.3V33.9l3.2-2.9h8.9v13.2h-2.3l2.8,7.5H59.6z M59.2,40.3v-5.4h-3.3v5.4H59.2z
				"/>
			<path class="st4" d="M72.7,47.7v3.9h-7.2v-3.9H67V34.9h-1.4V31h7.2v3.9h-1.4v12.9H72.7z"/>
			<path class="st4" d="M74.6,31h8.9l3.3,3.3v14.6l-2.9,2.9h-9.3V31z M82.5,47.7V34.9h-3.6v12.9H82.5z"/>
			<path class="st4" d="M92.9,51.7h-4.4V34.2l3.3-3.3h9.1v20.7h-4.3v-6.8h-3.7V51.7z M96.6,40.9v-6h-3.7v6H96.6z"/>
			<path class="st4" d="M111.9,31h4.5l-7,20.7h-4.5l2.7-7.9L103.2,31h4.5l2,6.4L111.9,31z"/>
		</g>
	</g>
	<g>
		<path class="st5" d="M52.8,83.4l-1.3-6.2l7.6-6.6l0,0h10.1v48.2H58.9V83.5L52.8,83.4z"/>
		<path class="st5" d="M101.6,94.3v17.8l-6.7,6.7H73.1v-15.5h9.8v6.4h8.6V98.8H87v-9.2h4.4v-10h-8.6v6H73v-8.4l7.2-6.6h20.6v19
			l-5.5,4.7H101.6z"/>
	</g>
	<polygon class="st6" points="134.6,117.1 149.6,117.2 134.6,132.1 	"/>
</g>
</svg>
