<svg id="Layer_1" data-name="Layer 1" xmlns="http://www.w3.org/2000/svg" viewBox="0 0 158.41 158.41">
  <defs>
    <style>
      .cls-1 {
        fill: #fff;
        opacity: 0;
      }

      .cls-2 {
        fill: #2d1b2b;
      }

      .cls-3 {
        fill: #3b283a;
      }

      .cls-4 {
        fill: #512c15;
      }

      .cls-5 {
        fill: #6b3c1a;
      }

      .cls-6 {
        fill: #925b34;
      }

      .cls-7 {
        fill: #442613;
      }

      .cls-8 {
        fill: #5e3517;
      }

      .cls-9 {
        fill: #7d4a28;
      }

      .cls-10 {
        fill: #272626;
      }

      .cls-11 {
        fill: #3a3b3a;
      }

      .cls-12 {
        fill: #301b11;
      }

      .cls-13 {
        fill: #42241a;
      }

      .cls-14 {
        fill: #ccc;
      }

      .cls-15 {
        fill: #f4f4f4;
      }
    </style>
  </defs>
  <title>baphomet</title>
  <rect class="cls-1" width="158.41" height="158.41"/>
  <g>
    <polygon class="cls-2" points="87.96 87.22 77.65 53.97 63.9 25.76 37.85 12.8 18.49 12.1 7.53 4.06 14.73 18.94 36.1 23.95 54.57 37 65.79 59.01 71.36 90.55 87.96 87.22"/>
    <polygon class="cls-3" points="70.45 87.22 80.75 53.97 94.51 25.76 120.56 12.8 139.92 12.1 150.88 4.06 143.67 18.94 122.3 23.95 103.84 37 92.62 59.01 87.05 90.55 70.45 87.22"/>
    <polygon class="cls-4" points="50.2 40.74 43.57 40.74 12.09 52.34 31.14 60.63 37.77 60.63 45.65 58.97 51.86 49.02 50.2 40.74"/>
    <polygon class="cls-5" points="79.2 31.21 50.2 40.74 45.65 58.97 56 95.43 69.26 110.75 79.2 110.75 79.2 31.21"/>
    <polygon class="cls-6" points="79.2 119.43 68.43 116.11 68.43 109.07 72.16 102.86 72.16 84.63 79.2 78.83 79.2 119.43"/>
    <polygon class="cls-7" points="108.2 40.74 114.83 40.74 146.32 52.34 127.26 60.63 120.63 60.63 112.76 58.97 106.55 49.02 108.2 40.74"/>
    <polygon class="cls-8" points="79.2 31.21 108.2 40.74 112.76 58.97 102.4 95.43 89.15 110.75 79.2 110.75 79.2 31.21"/>
    <polygon class="cls-9" points="79.2 119.43 89.97 116.11 89.97 109.07 86.25 102.86 86.25 84.63 79.2 78.83 79.2 119.43"/>
    <polygon class="cls-6" points="68.43 116.11 79.2 119.43 79.2 124.22 73.82 124.22 68.43 116.11"/>
    <polygon class="cls-9" points="89.97 116.11 79.2 119.43 79.2 124.22 84.59 124.22 89.97 116.11"/>
    <polygon class="cls-10" points="68.43 116.11 79.2 119.43 79.2 120.92 70.39 119.06 68.43 116.11"/>
    <polygon class="cls-11" points="89.97 116.11 79.2 119.43 79.2 120.92 88.02 119.06 89.97 116.11"/>
    <polygon class="cls-12" points="70.88 107.71 76.91 112.28 78.08 113.46 76.76 114.46 76.44 113.14 70.88 107.71"/>
    <polygon class="cls-13" points="87.72 107.71 81.69 112.28 80.52 113.46 81.84 114.46 82.16 113.14 87.72 107.71"/>
    <polygon class="cls-14" points="63.94 73.35 68.43 70.81 66.1 68.78 61.17 66.71 59.45 70.81 63.94 73.35"/>
    <polygon class="cls-14" points="94.47 73.35 89.97 70.81 92.31 68.78 97.24 66.71 98.96 70.81 94.47 73.35"/>
    <g>
      <polygon class="cls-15" points="76.71 48.9 74.67 47.49 79.3 36.11 82.39 43.66 80.68 43.6 79.29 38.57 76.71 48.9"/>
      <polygon class="cls-15" points="81.71 46.18 84.19 46.32 86.16 58.45 79.59 53.62 81.08 52.77 84.89 56.35 81.71 46.18"/>
      <polygon class="cls-15" points="78.5 46.55 79.02 44.13 91.31 44.05 85.52 49.8 84.92 48.2 89.04 44.98 78.5 46.55"/>
      <polygon class="cls-15" points="78.13 51.85 76.04 53.18 67.37 44.46 75.53 44.57 74.81 46.12 69.63 45.43 78.13 51.85"/>
      <polygon class="cls-15" points="80.73 49.64 81.74 51.9 71.9 59.25 73.15 51.19 74.58 52.12 73.17 57.16 80.73 49.64"/>
    </g>
    <polygon class="cls-12" points="45.65 58.97 43.3 70.98 50.77 99.13 63.94 114.46 79.2 154.35 79.2 124.22 73.82 124.22 68.43 116.11 68.43 109.07 56 95.43 45.65 58.97"/>
    <polygon class="cls-13" points="112.77 58.97 115.12 70.98 107.65 99.13 94.48 114.46 79.21 154.35 79.21 124.22 84.6 124.22 89.99 116.11 89.99 109.07 102.42 95.43 112.77 58.97"/>
  </g>
</svg>
