<svg id="Layer_1" data-name="Layer 1" xmlns="http://www.w3.org/2000/svg" viewBox="0 0 500 500">
  <defs>
    <style>
      .cls-1 {
        fill: #962a1f;
      }

      .cls-2 {
        fill: #8f2520;
      }
    </style>
  </defs>
  <title>bg</title>
  <rect class="cls-1" width="500" height="500"/>
  <g>
    <polygon class="cls-2" points="137.89 121.16 135.22 121.55 128.6 114.93 127.06 113.38 122.78 109.1 120.73 104.74 124.78 100.68 122.71 98.61 118.11 103.21 104.64 89.74 139.39 54.98 144.48 42.88 132.37 47.97 97.62 82.72 62.87 47.97 50.76 42.88 55.85 54.98 90.6 89.74 89.5 90.83 77.13 103.21 72.53 98.61 70.46 100.68 74.51 104.74 72.46 109.1 68.18 113.38 66.64 114.93 60.02 121.55 57.35 121.16 53.01 123.41 50.76 127.74 51.46 132.51 53.15 134.2 54.84 135.89 59.61 136.59 63.95 134.34 66.2 130 65.81 127.34 72.43 120.72 73.97 119.17 78.25 114.9 82.62 112.84 78.56 108.79 86.67 116.9 88.75 114.82 84.15 110.22 96.52 97.85 97.62 96.75 111.09 110.22 106.49 114.82 108.57 116.9 116.67 108.79 112.62 112.84 116.99 114.9 121.27 119.17 122.81 120.72 129.43 127.34 129.04 130 131.29 134.34 135.63 136.59 140.4 135.89 142.09 134.2 143.78 132.51 144.48 127.74 142.23 123.41 137.89 121.16"/>
    <polygon class="cls-2" points="299.27 82.36 263.33 82.36 263.33 42.88 255.95 48.36 248.57 42.88 248.57 82.36 212.64 82.36 218.12 89.74 212.64 97.11 248.57 97.11 248.57 136.59 255.95 131.11 263.33 136.59 263.33 97.11 299.27 97.11 293.79 89.74 299.27 82.36"/>
    <polygon class="cls-2" points="428.48 51.94 414.29 42.88 414.29 42.88 414.29 42.88 400.09 51.94 379.34 59.75 384.37 100.04 393.48 125.11 414.29 136.59 414.29 136.59 414.29 136.59 435.09 125.11 444.21 100.04 449.24 59.75 428.48 51.94"/>
  </g>
  <g>
    <polygon class="cls-2" points="373.84 441.83 376.51 442.22 383.13 435.6 384.67 434.05 388.95 429.77 391 425.41 386.95 421.35 389.02 419.28 393.63 423.88 407.1 410.41 372.34 375.65 367.25 363.55 379.36 368.64 414.11 403.39 448.87 368.64 460.97 363.55 455.88 375.65 421.13 410.41 422.23 411.5 434.6 423.88 439.2 419.28 441.27 421.35 437.22 425.41 439.27 429.77 443.55 434.05 445.1 435.6 451.72 442.22 454.38 441.83 458.72 444.08 460.97 448.41 460.27 453.18 458.58 454.87 456.89 456.56 452.12 457.26 447.78 455.01 445.53 450.68 445.92 448.01 439.3 441.39 437.76 439.85 433.48 435.57 429.11 433.51 433.17 429.46 425.06 437.57 422.98 435.49 427.58 430.89 415.21 418.52 414.11 417.42 400.64 430.89 405.24 435.49 403.17 437.57 395.06 429.46 399.11 433.51 394.75 435.57 390.47 439.85 388.92 441.39 382.3 448.01 382.69 450.68 380.44 455.01 376.1 457.26 371.33 456.56 369.64 454.87 367.95 453.18 367.25 448.41 369.5 444.08 373.84 441.83"/>
    <polygon class="cls-2" points="54.3 403.03 90.24 403.03 90.24 363.55 97.62 369.03 105 363.55 105 403.03 140.94 403.03 135.45 410.41 140.94 417.79 105 417.79 105 457.26 97.62 451.78 90.24 457.26 90.24 417.79 54.3 417.79 59.79 410.41 54.3 403.03"/>
    <polygon class="cls-2" points="241.58 372.61 255.78 363.55 255.78 363.55 255.78 363.55 269.97 372.61 290.73 380.42 285.7 420.71 276.58 445.78 255.78 457.26 255.78 457.26 255.78 457.26 234.98 445.78 225.86 420.71 220.83 380.42 241.58 372.61"/>
  </g>
  <g>
    <polygon class="cls-2" points="215.68 284.93 218.35 285.31 224.97 278.69 226.51 277.15 230.79 272.87 232.84 268.5 228.79 264.45 230.87 262.37 235.47 266.98 248.94 253.5 214.18 218.75 209.1 206.65 221.2 211.74 255.95 246.49 290.71 211.74 302.81 206.65 297.72 218.75 262.97 253.5 264.07 254.6 276.44 266.98 281.04 262.37 283.12 264.45 279.06 268.5 281.12 272.87 285.39 277.15 286.94 278.69 293.56 285.31 296.22 284.93 300.56 287.17 302.81 291.51 302.11 296.28 300.42 297.97 298.73 299.66 293.96 300.36 289.62 298.11 287.37 293.77 287.76 291.11 281.14 284.49 279.6 282.94 275.32 278.67 270.95 276.61 275.01 272.56 266.9 280.67 264.82 278.59 269.42 273.99 257.05 261.62 255.95 260.52 242.48 273.99 247.08 278.59 245.01 280.67 236.9 272.56 240.95 276.61 236.59 278.67 232.31 282.94 230.76 284.49 224.14 291.11 224.53 293.77 222.28 298.11 217.95 300.36 213.18 299.66 211.49 297.97 209.8 296.28 209.1 291.51 211.35 287.17 215.68 284.93"/>
    <polygon class="cls-2" points="370.97 246.13 406.91 246.13 406.91 206.65 414.29 212.13 421.67 206.65 421.67 246.13 457.6 246.13 452.12 253.5 457.6 260.88 421.67 260.88 421.67 300.36 414.29 294.88 406.91 300.36 406.91 260.88 370.97 260.88 376.45 253.5 370.97 246.13"/>
    <polygon class="cls-2" points="83.25 215.71 97.44 206.65 97.44 206.65 97.44 206.65 111.64 215.71 132.4 223.52 127.36 263.81 118.25 288.88 97.44 300.36 97.44 300.36 97.44 300.36 76.64 288.88 67.53 263.81 62.5 223.52 83.25 215.71"/>
  </g>
</svg>
