<?xml version="1.0" encoding="utf-8"?>
<!-- Generator: Adobe Illustrator 20.1.0, SVG Export Plug-In . SVG Version: 6.00 Build 0)  -->
<svg version="1.1" id="Layer_1" xmlns="http://www.w3.org/2000/svg" xmlns:xlink="http://www.w3.org/1999/xlink" x="0px" y="0px"
	 viewBox="0 0 500 500" style="enable-background:new 0 0 500 500;" xml:space="preserve">
<style type="text/css">
	.st0{fill:#8F2520;}
</style>
<title>bg</title>
<g>
	<polygon class="st0" points="137.9,121.2 135.2,121.6 128.6,114.9 127.1,113.4 122.8,109.1 120.7,104.7 124.8,100.7 122.7,98.6 
		118.1,103.2 104.6,89.7 139.4,55 144.5,42.9 132.4,48 97.6,82.7 62.9,48 50.8,42.9 55.8,55 90.6,89.7 89.5,90.8 77.1,103.2 
		72.5,98.6 70.5,100.7 74.5,104.7 72.5,109.1 68.2,113.4 66.6,114.9 60,121.6 57.3,121.2 53,123.4 50.8,127.7 51.5,132.5 
		53.2,134.2 54.8,135.9 59.6,136.6 64,134.3 66.2,130 65.8,127.3 72.4,120.7 74,119.2 78.3,114.9 82.6,112.8 78.6,108.8 86.7,116.9 
		88.8,114.8 84.2,110.2 96.5,97.8 97.6,96.8 111.1,110.2 106.5,114.8 108.6,116.9 116.7,108.8 112.6,112.8 117,114.9 121.3,119.2 
		122.8,120.7 129.4,127.3 129,130 131.3,134.3 135.6,136.6 140.4,135.9 142.1,134.2 143.8,132.5 144.5,127.7 142.2,123.4 	"/>
	<polygon class="st0" points="299.3,82.4 263.3,82.4 263.3,42.9 255.9,48.4 248.6,42.9 248.6,82.4 212.6,82.4 218.1,89.7 
		212.6,97.1 248.6,97.1 248.6,136.6 255.9,131.1 263.3,136.6 263.3,97.1 299.3,97.1 293.8,89.7 	"/>
	<polygon class="st0" points="428.5,51.9 414.3,42.9 414.3,42.9 414.3,42.9 400.1,51.9 379.3,59.8 384.4,100 393.5,125.1 
		414.3,136.6 414.3,136.6 414.3,136.6 435.1,125.1 444.2,100 449.2,59.8 	"/>
</g>
<g>
	<polygon class="st0" points="373.8,441.8 376.5,442.2 383.1,435.6 384.7,434 389,429.8 391,425.4 387,421.4 389,419.3 393.6,423.9 
		407.1,410.4 372.3,375.6 367.3,363.5 379.4,368.6 414.1,403.4 448.9,368.6 461,363.5 455.9,375.6 421.1,410.4 422.2,411.5 
		434.6,423.9 439.2,419.3 441.3,421.4 437.2,425.4 439.3,429.8 443.5,434 445.1,435.6 451.7,442.2 454.4,441.8 458.7,444.1 
		461,448.4 460.3,453.2 458.6,454.9 456.9,456.6 452.1,457.3 447.8,455 445.5,450.7 445.9,448 439.3,441.4 437.8,439.9 433.5,435.6 
		429.1,433.5 433.2,429.5 425.1,437.6 423,435.5 427.6,430.9 415.2,418.5 414.1,417.4 400.6,430.9 405.2,435.5 403.2,437.6 
		395.1,429.5 399.1,433.5 394.8,435.6 390.5,439.9 388.9,441.4 382.3,448 382.7,450.7 380.4,455 376.1,457.3 371.3,456.6 
		369.6,454.9 368,453.2 367.3,448.4 369.5,444.1 	"/>
	<polygon class="st0" points="54.3,403 90.2,403 90.2,363.5 97.6,369 105,363.5 105,403 140.9,403 135.4,410.4 140.9,417.8 
		105,417.8 105,457.3 97.6,451.8 90.2,457.3 90.2,417.8 54.3,417.8 59.8,410.4 	"/>
	<polygon class="st0" points="241.6,372.6 255.8,363.5 255.8,363.5 255.8,363.5 270,372.6 290.7,380.4 285.7,420.7 276.6,445.8 
		255.8,457.3 255.8,457.3 255.8,457.3 235,445.8 225.9,420.7 220.8,380.4 	"/>
</g>
<g>
	<polygon class="st0" points="215.7,284.9 218.4,285.3 225,278.7 226.5,277.1 230.8,272.9 232.8,268.5 228.8,264.5 230.9,262.4 
		235.5,267 248.9,253.5 214.2,218.8 209.1,206.6 221.2,211.7 255.9,246.5 290.7,211.7 302.8,206.6 297.7,218.8 263,253.5 
		264.1,254.6 276.4,267 281,262.4 283.1,264.5 279.1,268.5 281.1,272.9 285.4,277.1 286.9,278.7 293.6,285.3 296.2,284.9 
		300.6,287.2 302.8,291.5 302.1,296.3 300.4,298 298.7,299.7 294,300.4 289.6,298.1 287.4,293.8 287.8,291.1 281.1,284.5 
		279.6,282.9 275.3,278.7 271,276.6 275,272.6 266.9,280.7 264.8,278.6 269.4,274 257,261.6 255.9,260.5 242.5,274 247.1,278.6 
		245,280.7 236.9,272.6 240.9,276.6 236.6,278.7 232.3,282.9 230.8,284.5 224.1,291.1 224.5,293.8 222.3,298.1 217.9,300.4 
		213.2,299.7 211.5,298 209.8,296.3 209.1,291.5 211.4,287.2 	"/>
	<polygon class="st0" points="371,246.1 406.9,246.1 406.9,206.6 414.3,212.1 421.7,206.6 421.7,246.1 457.6,246.1 452.1,253.5 
		457.6,260.9 421.7,260.9 421.7,300.4 414.3,294.9 406.9,300.4 406.9,260.9 371,260.9 376.5,253.5 	"/>
	<polygon class="st0" points="83.3,215.7 97.4,206.6 97.4,206.6 97.4,206.6 111.6,215.7 132.4,223.5 127.4,263.8 118.3,288.9 
		97.4,300.4 97.4,300.4 97.4,300.4 76.6,288.9 67.5,263.8 62.5,223.5 	"/>
</g>
</svg>
