<svg id="Layer_1" data-name="Layer 1" xmlns="http://www.w3.org/2000/svg" viewBox="0 0 246.02 246.02">
  <defs>
    <style>
      .cls-1 {
        fill: #fff;
        opacity: 0;
      }

      .cls-2 {
        fill: #303030;
      }

      .cls-3 {
        fill: #4fba6f;
      }

      .cls-4 {
        fill: #28ae60;
      }

      .cls-5 {
        fill: #601d1c;
      }

      .cls-6 {
        fill: #712627;
      }

      .cls-7 {
        fill: #bd6e9e;
      }

      .cls-8 {
        fill: #d784b7;
      }

      .cls-9 {
        fill: #d8d9d8;
      }

      .cls-10 {
        fill: #c7c6c5;
      }
    </style>
  </defs>
  <title>blasphemy</title>
  <rect class="cls-1" width="246.02" height="246.02"/>
  <g>
    <g>
      <polygon class="cls-2" points="61.51 40.9 66.01 40.9 71.52 42.72 65.09 59.08 61.51 40.9"/>
      <polygon class="cls-3" points="61.51 40.9 65.09 59.08 71.52 42.72 88.31 52.17 105.11 47.45 123.01 46.72 123.01 14 92.6 14 95.81 21.63 52.94 8.18 38.29 16.54 16.85 55.08 16.85 77.63 32.93 138.34 86.17 221.6 123.01 237.24 123.01 216.15 99.86 210.87 94.54 201.14 53.65 131.8 39 81.26 46.51 95.44 67.23 89.62 72.59 126.71 84.38 154.34 88.31 80.53 103.68 77.26 123.01 75.81 123.01 52.54 105.11 53.27 73.66 65.26 58.65 65.26 52.22 52.9 56.15 40.9 61.51 40.9"/>
      <polygon class="cls-4" points="184.5 40.9 180.93 59.08 174.5 42.72 157.71 52.17 140.91 47.45 123.01 46.72 123.01 14 153.42 14 150.2 21.63 193.08 8.18 207.73 16.54 229.17 55.08 229.17 77.63 213.09 138.34 159.85 221.6 123.01 237.24 123.01 216.15 146.16 210.87 151.48 201.14 192.37 131.8 207.02 81.26 199.51 95.44 178.79 89.62 173.43 126.71 161.64 154.34 157.71 80.53 142.34 77.26 123.01 75.81 123.01 52.54 140.91 53.27 172.36 65.26 187.36 65.26 193.79 52.9 189.87 40.9 184.5 40.9"/>
      <polygon class="cls-2" points="184.57 40.9 180.07 40.9 174.57 42.72 181 59.08 184.57 40.9"/>
      <polygon class="cls-2" points="61.51 40.9 66.01 40.9 71.52 42.72 65.09 59.08 61.51 40.9"/>
      <polygon class="cls-5" points="123.01 75.81 123.01 216.15 99.86 210.87 53.65 131.8 39 81.26 46.51 95.44 67.23 89.62 72.59 126.71 84.38 154.34 88.31 80.53 103.68 77.26 123.01 75.81"/>
      <polygon class="cls-6" points="123.01 75.83 123.01 216.18 146.16 210.89 192.37 131.82 207.02 81.29 199.51 95.47 178.79 89.65 173.43 126.73 161.64 154.37 157.71 80.56 142.34 77.29 123.01 75.83"/>
      <polyline class="cls-7" points="123.01 153.85 134.6 164.08 153.45 237.84 123.01 216.38"/>
      <polyline class="cls-8" points="123.01 153.85 111.42 164.08 92.56 237.84 123.01 216.38"/>
    </g>
    <polygon class="cls-9" points="88.31 80.53 84.38 154.34 72.59 126.71 67.23 89.62 88.31 80.53"/>
    <polygon class="cls-10" points="157.7 80.64 161.63 154.44 173.42 126.81 178.78 89.73 157.7 80.64"/>
  </g>
</svg>
