<?xml version="1.0" encoding="utf-8"?>
<!-- Generator: Adobe Illustrator 20.1.0, SVG Export Plug-In . SVG Version: 6.00 Build 0)  -->
<svg version="1.1" id="Layer_1" xmlns="http://www.w3.org/2000/svg" xmlns:xlink="http://www.w3.org/1999/xlink" x="0px" y="0px"
	 viewBox="0 0 246 246" style="enable-background:new 0 0 246 246;" xml:space="preserve">
<style type="text/css">
	.st0{fill:#FFFFFF;fill-opacity:0;}
	.st1{fill:#FFFFFF;}
	.st2{fill:#303030;}
	.st3{fill:#4FBA6F;}
	.st4{fill:#28AE60;}
	.st5{fill:#601D1C;}
	.st6{fill:#712627;}
	.st7{fill:#BD6E9E;}
	.st8{fill:#D784B7;}
	.st9{fill:#D8D9D8;}
	.st10{fill:#C7C6C5;}
</style>
<title>blasphemy</title>
<rect class="st0" width="246" height="246"/>
<g>
	<g>
		<polygon class="st1" points="56.2,40.9 66,40.9 71.5,42.7 88.3,52.2 105.1,47.5 123,46.7 140.9,47.5 157.7,52.2 174.6,42.7 
			180.1,40.9 189.9,40.9 193.8,52.9 187.4,65.3 172.4,65.3 140.9,53.3 123,52.5 105.1,53.3 73.7,65.3 58.7,65.3 52.2,52.9 		"/>
		<polygon class="st2" points="61.5,40.9 66,40.9 71.5,42.7 65.1,59.1 		"/>
		<polygon class="st3" points="61.5,40.9 65.1,59.1 71.5,42.7 88.3,52.2 105.1,47.5 123,46.7 123,14 92.6,14 95.8,21.6 52.9,8.2 
			38.3,16.5 16.9,55.1 16.9,77.6 32.9,138.3 86.2,221.6 123,237.2 123,216.1 99.9,210.9 94.5,201.1 53.7,131.8 39,81.3 46.5,95.4 
			67.2,89.6 72.6,126.7 84.4,154.3 88.3,80.5 103.7,77.3 123,75.8 123,52.5 105.1,53.3 73.7,65.3 58.7,65.3 52.2,52.9 56.2,40.9 		
			"/>
		<polygon class="st4" points="184.5,40.9 180.9,59.1 174.5,42.7 157.7,52.2 140.9,47.5 123,46.7 123,14 153.4,14 150.2,21.6 
			193.1,8.2 207.7,16.5 229.2,55.1 229.2,77.6 213.1,138.3 159.9,221.6 123,237.2 123,216.1 146.2,210.9 151.5,201.1 192.4,131.8 
			207,81.3 199.5,95.4 178.8,89.6 173.4,126.7 161.6,154.3 157.7,80.5 142.3,77.3 123,75.8 123,52.5 140.9,53.3 172.4,65.3 
			187.4,65.3 193.8,52.9 189.9,40.9 		"/>
		<polygon class="st2" points="184.6,40.9 180.1,40.9 174.6,42.7 181,59.1 		"/>
		<polygon class="st2" points="61.5,40.9 66,40.9 71.5,42.7 65.1,59.1 		"/>
		<polygon class="st5" points="123,75.8 123,216.1 99.9,210.9 53.7,131.8 39,81.3 46.5,95.4 67.2,89.6 72.6,126.7 84.4,154.3 
			88.3,80.5 103.7,77.3 		"/>
		<polygon class="st6" points="123,75.8 123,216.2 146.2,210.9 192.4,131.8 207,81.3 199.5,95.5 178.8,89.7 173.4,126.7 
			161.6,154.4 157.7,80.6 142.3,77.3 		"/>
		<polyline class="st7" points="123,153.9 134.6,164.1 153.4,237.8 123,216.4 		"/>
		<polyline class="st8" points="123,153.9 111.4,164.1 92.6,237.8 123,216.4 		"/>
	</g>
	<polygon class="st9" points="88.3,80.5 84.4,154.3 72.6,126.7 67.2,89.6 	"/>
	<polygon class="st10" points="157.7,80.6 161.6,154.4 173.4,126.8 178.8,89.7 	"/>
</g>
</svg>
