<svg id="Layer_1" data-name="Layer 1" xmlns="http://www.w3.org/2000/svg" viewBox="0 0 75.41 51.04">
  <defs>
    <style>
      .cls-1 {
        fill: #95a5a6;
      }

      .cls-2 {
        fill: #7f8c8d;
      }

      .cls-3 {
        fill: #edf0f1;
      }

      .cls-4 {
        fill: #bdc3c7;
      }
    </style>
  </defs>
  <title>castle</title>
  <g id="Castle">
    <polygon class="cls-1" points="37.71 0 22.97 16.49 22.97 23.1 22.97 38.92 22.97 51.04 33.72 51.04 33.72 38.92 41.69 38.92 41.69 51.04 52.44 51.04 52.44 38.92 52.44 23.1 52.44 15.79 37.71 0"/>
    <polygon class="cls-2" points="37.71 0 37.71 38.92 41.69 38.92 41.69 51.04 52.44 51.04 52.44 38.92 52.44 23.1 52.44 15.79 37.71 0"/>
    <polygon class="cls-3" points="51.55 18.95 51.55 21.63 48.44 21.63 48.44 18.95 43.45 18.95 43.45 21.63 40.34 21.63 40.34 18.95 35.36 18.95 35.36 21.63 31.96 21.63 31.96 18.95 26.98 18.95 26.98 21.63 23.86 21.63 23.86 18.95 18.88 18.95 18.88 21.63 18.88 25.52 23.86 25.52 26.98 25.52 31.96 25.52 35.36 25.52 40.34 25.52 43.45 25.52 48.44 25.52 51.55 25.52 56.53 25.52 56.53 21.63 56.53 18.95 51.55 18.95"/>
    <polygon class="cls-4" points="37.71 18.95 35.36 18.95 35.36 21.63 31.96 21.63 31.96 18.95 26.98 18.95 26.98 21.63 23.86 21.63 23.86 18.95 18.88 18.95 18.88 21.63 18.88 25.52 23.86 25.52 26.98 25.52 31.96 25.52 35.36 25.52 37.71 25.52 37.71 18.95"/>
    <g>
      <polygon class="cls-1" points="10.94 26.68 1.87 35.18 1.87 51.04 20.01 51.04 20.01 35.18 10.94 26.68"/>
      <polygon class="cls-2" points="10.94 26.68 10.94 51.04 1.87 51.04 1.87 35.18 10.94 26.68"/>
      <polygon class="cls-3" points="18.99 36.34 18.99 38.4 17.18 38.4 17.18 36.34 14.28 36.34 14.28 38.4 12.47 38.4 12.47 36.34 9.58 36.34 9.58 38.4 7.6 38.4 7.6 36.34 4.71 36.34 4.71 38.4 2.9 38.4 2.9 36.34 0 36.34 0 38.4 0 41.38 2.9 41.38 4.71 41.38 7.6 41.38 9.58 41.38 12.47 41.38 14.28 41.38 17.18 41.38 18.99 41.38 21.88 41.38 21.88 38.4 21.88 36.34 18.99 36.34"/>
      <polygon class="cls-4" points="10.94 36.34 9.58 36.34 9.58 38.4 7.6 38.4 7.6 36.34 4.71 36.34 4.71 38.4 2.9 38.4 2.9 36.34 0 36.34 0 38.4 0 41.38 2.9 41.38 4.71 41.38 7.6 41.38 9.58 41.38 10.94 41.38 10.94 36.34"/>
    </g>
    <g>
      <polygon class="cls-1" points="64.47 26.68 55.4 35.18 55.4 51.04 73.54 51.04 73.54 35.18 64.47 26.68"/>
      <polygon class="cls-2" points="64.47 26.68 64.47 51.04 73.54 51.04 73.54 35.18 64.47 26.68"/>
      <polygon class="cls-3" points="72.52 36.34 72.52 38.4 70.71 38.4 70.71 36.34 67.81 36.34 67.81 38.4 66 38.4 66 36.34 63.11 36.34 63.11 38.4 61.13 38.4 61.13 36.34 58.23 36.34 58.23 38.4 56.42 38.4 56.42 36.34 53.53 36.34 53.53 38.4 53.53 41.38 56.42 41.38 58.23 41.38 61.13 41.38 63.11 41.38 66 41.38 67.81 41.38 70.71 41.38 72.52 41.38 75.41 41.38 75.41 38.4 75.41 36.34 72.52 36.34"/>
      <polygon class="cls-4" points="64.47 36.34 65.83 36.34 65.83 38.4 67.81 38.4 67.81 36.34 70.71 36.34 70.71 38.4 72.52 38.4 72.52 36.34 75.41 36.34 75.41 38.4 75.41 41.38 72.52 41.38 70.71 41.38 67.81 41.38 65.83 41.38 64.47 41.38 64.47 36.34"/>
    </g>
  </g>
</svg>
