<svg id="Layer_1" data-name="Layer 1" xmlns="http://www.w3.org/2000/svg" viewBox="0 0 61.08 61.1">
  <defs>
    <style>
      .cls-1 {
        fill: #576d7d;
      }

      .cls-2 {
        fill: #3d5264;
      }

      .cls-3 {
        fill: #fff;
      }

      .cls-4 {
        fill: #e1cbb9;
      }

      .cls-5 {
        fill: #cdae98;
      }

      .cls-6 {
        fill: #e2e2e2;
      }

      .cls-7 {
        fill: #c9c9c9;
      }

      .cls-8 {
        fill: #cb8e7e;
      }

      .cls-9 {
        fill: #b27669;
      }

      .cls-10 {
        fill: #393631;
      }

      .cls-11 {
        fill: #484642;
      }

      .cls-12 {
        fill: #97997f;
      }

      .cls-13 {
        fill: #464f52;
      }

      .cls-14 {
        fill: #303a3e;
      }

      .cls-15 {
        fill: #f29d1f;
      }

      .cls-16 {
        fill: #dc8927;
      }

      .cls-17 {
        fill: #cc3e36;
      }

      .cls-18 {
        fill: #b72c29;
      }
    </style>
  </defs>
  <title>chaplain</title>
  <g>
    <g>
      <polygon class="cls-1" points="43.19 0 30.54 0 30.54 61.08 43.19 61.08 61.08 43.19 61.08 17.89 43.19 0"/>
      <polygon class="cls-2" points="17.89 0 0 17.89 0 43.19 17.89 61.08 17.91 61.1 30.54 61.1 30.54 61.08 30.54 0 17.89 0"/>
    </g>
    <polygon class="cls-3" points="0 37.39 9.6 32.67 16.98 29.97 17.05 14.22 19.81 8.65 24.45 4.18 30.54 4.18 30.54 48.96 5.77 48.96 0 43.19 0 37.39"/>
    <polygon class="cls-3" points="61.08 37.39 51.48 32.67 44.09 29.97 44.03 14.22 41.26 8.65 36.63 4.18 30.54 4.18 30.54 48.96 55.31 48.96 61.08 43.19 61.08 37.39"/>
    <polygon class="cls-4" points="40.69 9.51 35.92 5.25 30.61 5.25 25.31 5.25 20.54 9.51 18.29 13.99 18.29 30.62 24.45 37.39 30.61 37.39 36.78 37.39 42.94 30.62 42.94 13.99 40.69 9.51"/>
    <polygon class="cls-5" points="30.61 5.25 35.92 5.25 40.69 9.51 42.94 13.99 42.94 30.62 36.78 37.39 30.61 37.39 30.61 5.25"/>
    <polygon class="cls-6" points="18.29 13.99 20.63 16.52 20.63 20.61 18.29 22.52 18.29 13.99"/>
    <polygon class="cls-7" points="42.94 13.99 40.6 16.52 40.6 20.61 42.94 22.52 42.94 13.99"/>
    <g>
      <polygon class="cls-6" points="27.33 27.06 24.45 29.84 18.29 25.81 18.29 30.62 24.45 37.39 30.61 37.39 30.56 27.06 27.33 27.06"/>
      <polygon class="cls-7" points="36.78 29.84 33.9 27.06 30.56 27.04 30.56 27.06 30.61 37.39 36.78 37.39 42.94 30.62 42.94 25.81 36.78 29.84"/>
    </g>
    <g>
      <polygon class="cls-8" points="28.27 25.14 30.56 27.17 32.96 25.14 30.61 19.9 28.27 25.14"/>
      <polygon class="cls-9" points="30.61 19.9 28.27 25.14 30.56 27.17 30.61 27.13 30.61 19.9"/>
      <polygon class="cls-10" points="24.08 14.22 24.91 13.54 28.7 13.26 29.18 14.14 24.08 14.22"/>
      <polygon class="cls-10" points="37.61 14.22 36.78 13.54 33 13.26 32.51 14.14 37.61 14.22"/>
      <polygon class="cls-11" points="26.17 18.58 24.95 17.89 25.41 16.78 26.92 16.78 27.38 17.89 26.17 18.58"/>
      <polygon class="cls-11" points="35.06 18.58 36.28 17.89 35.81 16.78 34.31 16.78 33.85 17.89 35.06 18.58"/>
    </g>
    <g>
      <polygon class="cls-12" points="30.61 54.53 30.61 54.46 30.59 54.49 30.61 54.53"/>
      <polygon class="cls-13" points="24.45 37.39 18.29 30.62 10.45 33.89 14.83 41.83 23.29 45.01 30.56 54.46 30.56 37.39 24.45 37.39"/>
      <polygon class="cls-14" points="42.89 30.62 36.73 37.39 30.61 37.39 30.56 37.39 30.56 54.46 30.56 54.53 30.59 54.49 30.61 54.46 37.89 45.01 46.34 41.83 50.73 33.89 42.89 30.62"/>
    </g>
    <rect class="cls-15" x="27.23" y="54.53" width="6.62" height="2.55"/>
    <rect class="cls-16" x="27.23" y="54.53" width="3.36" height="2.55"/>
    <polygon class="cls-17" points="0 43.19 17.89 61.08 19.47 61.08 19.61 59.12 27.23 50.12 23.29 45.01 14.83 41.83 10.45 33.89 0 38.83 0 43.19"/>
    <polygon class="cls-18" points="41.6 61.08 43.19 61.08 61.08 43.19 61.08 38.83 50.73 33.89 46.24 41.83 37.79 45.01 33.85 50.12 41.47 59.12 41.6 61.08"/>
  </g>
</svg>
