<svg id="Layer_1" data-name="Layer 1" xmlns="http://www.w3.org/2000/svg" viewBox="0 0 180.24 103.98">
  <defs>
    <style>
      .cls-1 {
        fill: #576d7d;
      }

      .cls-2 {
        fill: #cc3e36;
      }

      .cls-3 {
        fill: #b72c29;
      }

      .cls-4 {
        fill: #e1cbb9;
      }

      .cls-5 {
        fill: #523f38;
      }

      .cls-6 {
        fill: #614d45;
      }

      .cls-7 {
        fill: #cdae98;
      }

      .cls-8 {
        fill: #d6d8bb;
      }

      .cls-9 {
        fill: #bcbd9b;
      }

      .cls-10 {
        fill: #e64d3c;
      }

      .cls-11 {
        fill: #303a3e;
      }

      .cls-12 {
        fill: #4a2c23;
      }

      .cls-13 {
        fill: #464f52;
      }

      .cls-14 {
        fill: #5a3a2f;
      }

      .cls-15 {
        fill: #cb8e7e;
      }

      .cls-16 {
        fill: #b27669;
      }

      .cls-17 {
        fill: #393631;
      }

      .cls-18 {
        fill: #484642;
      }

      .cls-19 {
        fill: #bc9d88;
      }

      .cls-20 {
        fill: #494237;
      }

      .cls-21 {
        fill: #1e2628;
      }

      .cls-22 {
        fill: none;
      }

      .cls-23 {
        fill: #555e61;
      }

      .cls-24 {
        fill: #e2e2e2;
      }

      .cls-25 {
        fill: #c9c9c9;
      }

      .cls-26 {
        fill: #97997f;
      }

      .cls-27 {
        fill: #f29d1f;
      }

      .cls-28 {
        fill: #dc8927;
      }
    </style>
  </defs>
  <title>community</title>
  <g>
    <polygon class="cls-1" points="167.88 0 118.37 0 61.86 0 12.36 0 0 15.66 0 51.99 0 88.32 12.36 103.97 61.86 103.97 118.37 103.97 167.88 103.97 180.24 88.32 180.24 51.99 180.24 15.66 167.88 0"/>
    <g>
      <polygon class="cls-2" points="84.86 42.24 78.02 50.32 76.84 67.93 52.58 39.09 30.39 51.59 33.25 36.77 38.76 30.82 68.19 24.74 73.74 34.8 81.33 37.65 84.86 42.24"/>
      <polygon class="cls-3" points="90.8 42.24 97.64 50.32 98.82 67.93 123.08 39.09 145.26 51.59 142.4 36.77 136.9 30.82 107.47 24.74 101.92 34.8 94.33 37.65 90.8 42.24"/>
      <g>
        <g>
          <polygon class="cls-4" points="130.29 32.21 132.02 18.88 129.1 17.31 124.6 18.88 120.1 17.31 117.19 18.88 118.91 32.21 115.69 24.76 115.69 29.49 117.55 36.51 124.6 39.09 131.66 36.51 133.52 29.49 133.52 24.76 130.29 32.21"/>
          <polygon class="cls-5" points="138.11 17.31 131.95 8.77 124.6 11.89 117.25 8.77 111.09 17.31 110.96 34.74 113.22 39.09 117.55 36.51 115.69 29.49 115.69 24.76 118.91 32.21 117.19 18.88 120.1 17.31 124.6 18.88 129.1 17.31 132.02 18.88 130.29 32.21 133.52 24.76 133.52 29.49 131.66 36.51 135.99 39.09 138.24 34.74 138.11 17.31"/>
          <polygon class="cls-6" points="124.6 11.89 124.6 18.88 120.1 17.31 117.19 18.88 118.91 32.21 115.69 24.76 115.69 29.49 117.55 36.51 113.22 39.09 110.96 34.74 111.09 17.31 117.25 8.77 124.6 11.89"/>
          <polygon class="cls-7" points="124.6 18.88 124.6 39.09 131.66 36.51 133.52 29.49 133.52 24.76 130.29 32.21 132.02 18.88 129.1 17.31 124.6 18.88"/>
        </g>
        <g>
          <polygon class="cls-8" points="142.53 44.74 147.48 53.96 145.01 65.88 147.48 53.96 142.53 44.74"/>
          <polygon class="cls-8" points="109.54 49.48 106.67 44.74 101.72 53.96 104.2 65.88 108.13 93.01 118.46 102 115.69 93.2 124.6 91.7 124.6 55.35 109.54 49.48"/>
          <polygon class="cls-9" points="142.53 44.74 139.67 49.48 124.6 55.35 124.6 91.7 133.52 93.2 130.75 102 141.07 93.01 145.01 65.88 147.48 53.96 142.53 44.74"/>
        </g>
        <g>
          <polygon class="cls-2" points="140.02 63.91 127.23 63.91 127.23 49.13 124.6 51.19 121.98 49.13 121.98 63.91 109.19 63.91 111.14 66.67 109.19 69.43 121.98 69.43 121.98 84.2 124.6 82.15 127.23 84.2 127.23 69.43 140.02 69.43 138.07 66.67 140.02 63.91"/>
          <polygon class="cls-10" points="124.6 82.15 124.6 51.19 121.98 49.13 121.98 63.91 109.19 63.91 111.14 66.67 109.19 69.43 121.98 69.43 121.98 84.2 124.6 82.15"/>
        </g>
        <g>
          <polygon class="cls-11" points="104.2 65.88 101.72 53.96 96.94 71.46 93.3 88.27 102.51 94.86 107.17 86.35 104.2 65.88"/>
          <polygon class="cls-12" points="93.3 95.71 101.72 99.86 102.51 94.86 93.3 88.27 93.3 95.71"/>
        </g>
        <g>
          <polygon class="cls-13" points="145.01 65.96 147.48 54.04 152.26 71.54 155.91 88.35 146.7 94.94 142.04 86.43 145.01 65.96"/>
          <polygon class="cls-14" points="155.91 95.79 147.48 99.94 146.7 94.94 155.91 88.35 155.91 95.79"/>
        </g>
        <g>
          <polygon class="cls-15" points="123.05 31.56 124.57 32.78 126.16 31.56 124.6 28.39 123.05 31.56"/>
          <polygon class="cls-16" points="124.6 28.39 123.05 31.56 124.57 32.78 124.6 32.76 124.6 28.39"/>
          <polygon class="cls-17" points="119.75 24.24 120.2 23.59 122.92 22.47 123.47 22.95 119.75 24.24"/>
          <polygon class="cls-18" points="121.16 26.71 120.22 26.23 120.58 25.45 121.74 25.45 122.1 26.23 121.16 26.71"/>
          <polygon class="cls-17" points="129.46 24.23 129 23.58 126.27 22.48 125.72 22.96 129.46 24.23"/>
          <polygon class="cls-18" points="128.05 26.71 128.99 26.23 128.63 25.45 127.47 25.45 127.11 26.23 128.05 26.71"/>
        </g>
        <g>
          <polygon class="cls-13" points="140.65 41.8 131.66 36.36 124.6 39.09 124.6 55.35 139.67 49.48 142.53 44.74 140.65 41.8"/>
          <polygon class="cls-11" points="117.55 36.36 108.56 41.8 106.67 44.74 109.54 49.48 124.6 55.35 124.6 39.09 117.55 36.36"/>
        </g>
      </g>
      <g>
        <polygon class="cls-13" points="96.38 58.88 89.32 58.88 89.32 50.74 87.87 51.87 86.43 50.74 86.43 58.88 79.37 58.88 80.45 60.41 79.37 61.93 86.43 61.93 86.43 70.08 87.87 68.94 89.32 70.08 89.32 61.93 96.38 61.93 95.3 60.41 96.38 58.88"/>
        <polygon class="cls-11" points="87.87 68.94 87.87 51.87 86.43 50.74 86.43 58.88 79.37 58.88 80.45 60.41 79.37 61.93 86.43 61.93 86.43 70.08 87.87 68.94"/>
      </g>
      <g>
        <g>
          <polygon class="cls-7" points="44.09 22.98 44.09 31.28 46.18 37.69 52.58 41.23 52.58 41.18 52.58 22.98 44.09 22.98"/>
          <polygon class="cls-19" points="52.58 22.93 52.58 22.98 52.58 41.18 58.97 37.64 61.06 31.23 61.06 22.93 52.58 22.93"/>
        </g>
        <g>
          <polygon class="cls-20" points="46.14 27.45 46.83 26.84 50.17 26.36 50.66 27.04 46.14 27.45"/>
          <polygon class="cls-20" points="59.01 27.39 58.3 26.8 54.95 26.42 54.48 27.12 59.01 27.39"/>
          <polygon class="cls-15" points="50.79 35.36 52.54 36.77 54.37 35.36 52.58 31.73 50.79 35.36"/>
          <polygon class="cls-16" points="52.58 31.73 50.79 35.36 52.54 36.77 52.58 36.74 52.58 31.73"/>
          <polygon class="cls-18" points="48.62 29.8 47.54 29.24 47.95 28.34 49.29 28.34 49.7 29.24 48.62 29.8"/>
          <polygon class="cls-18" points="56.54 29.8 57.62 29.24 57.21 28.34 55.87 28.34 55.46 29.24 56.54 29.8"/>
        </g>
        <g>
          <polygon class="cls-11" points="52.58 57.45 69.89 49.33 71.37 44.9 71.34 44.85 69.85 49.33 52.56 57.45 35.27 49.33 33.77 44.85 30.39 51.59 32.08 71.54 33.77 89.86 44.09 101.08 52.56 93.43 61.03 101.08 61.05 101.06 52.58 93.42 52.58 57.45"/>
          <polygon class="cls-21" points="71.39 44.85 71.37 44.9 69.89 49.33 52.58 57.45 52.58 93.42 61.05 101.06 61.07 101.08 71.39 89.86 73.08 71.54 74.77 51.59 71.39 44.85"/>
        </g>
        <polygon class="cls-13" points="30.39 51.59 24.33 69 33.25 84.26 30.39 51.59"/>
        <g>
          <polygon class="cls-2" points="68.67 63.06 55.3 63.06 55.3 47.63 52.56 49.77 49.81 47.63 49.81 63.06 36.45 63.06 38.49 65.95 36.45 68.83 49.81 68.83 49.81 84.26 52.56 82.12 55.3 84.26 55.3 68.83 68.67 68.83 66.63 65.95 68.67 63.06"/>
          <polygon class="cls-10" points="52.56 82.12 52.56 49.77 49.81 47.63 49.81 63.06 36.45 63.06 38.49 65.95 36.45 68.83 49.81 68.83 49.81 84.26 52.56 82.12"/>
        </g>
        <g>
          <polygon class="cls-22" points="50.95 23.02 44.09 22.98 44.09 31.28 46.18 37.69 52.58 41.18 58.97 37.69 61.06 31.28 61.06 22.98 54.2 23.02 54.2 29.63 52.58 30.56 50.95 29.63 50.95 23.02"/>
          <polygon class="cls-13" points="46.18 37.69 44.09 31.28 44.09 22.98 50.95 23.02 50.95 29.63 52.58 30.56 52.58 7.5 44.98 9.84 42.18 14.04 42.18 39.81 37.79 41.23 33.77 44.85 35.27 49.33 52.58 57.45 52.58 41.18 46.18 37.69"/>
          <polygon class="cls-11" points="67.37 41.23 62.98 39.81 62.98 14.04 60.18 9.84 52.58 7.5 52.58 30.56 54.2 29.63 54.2 23.02 61.06 22.98 61.06 31.28 58.97 37.69 52.58 41.18 52.58 57.45 69.89 49.33 71.38 44.85 67.37 41.23"/>
        </g>
        <polygon class="cls-23" points="74.76 51.59 80.82 69 71.9 84.26 74.76 51.59"/>
      </g>
      <polygon class="cls-4" points="96.94 5.8 92.65 1.98 87.9 1.98 83.14 1.98 78.86 5.8 76.84 9.82 76.84 24.74 82.37 30.82 87.9 30.82 93.43 30.82 98.96 24.74 98.96 9.82 96.94 5.8"/>
      <polygon class="cls-7" points="87.9 1.98 92.65 1.98 96.94 5.8 98.96 9.82 98.96 24.74 93.43 30.82 87.9 30.82 87.9 1.98"/>
      <polygon class="cls-24" points="76.84 9.82 78.94 12.09 78.94 15.76 76.84 17.47 76.84 9.82"/>
      <polygon class="cls-25" points="98.96 9.82 96.86 12.09 96.86 15.76 98.96 17.47 98.96 9.82"/>
      <g>
        <polygon class="cls-24" points="84.95 21.55 82.37 24.05 76.84 20.42 76.84 24.74 82.37 30.82 87.9 30.82 87.85 21.55 84.95 21.55"/>
        <polygon class="cls-25" points="93.43 24.05 90.84 21.55 87.85 21.53 87.85 21.55 87.9 30.82 93.43 30.82 98.96 24.74 98.96 20.42 93.43 24.05"/>
      </g>
      <g>
        <polygon class="cls-15" points="85.79 19.83 87.85 21.65 90 19.83 87.9 15.12 85.79 19.83"/>
        <polygon class="cls-16" points="87.9 15.12 85.79 19.83 87.85 21.65 87.9 21.61 87.9 15.12"/>
        <polygon class="cls-17" points="82.04 10.03 82.78 9.42 86.17 9.16 86.61 9.96 82.04 10.03"/>
        <polygon class="cls-17" points="94.18 10.03 93.43 9.42 90.04 9.16 89.6 9.96 94.18 10.03"/>
        <polygon class="cls-18" points="83.91 13.94 82.81 13.32 83.23 12.32 84.58 12.32 85 13.32 83.91 13.94"/>
        <polygon class="cls-18" points="91.89 13.94 92.98 13.32 92.56 12.32 91.22 12.32 90.8 13.32 91.89 13.94"/>
      </g>
      <g>
        <polygon class="cls-26" points="87.9 46.19 87.9 46.13 87.87 46.16 87.9 46.19"/>
        <polygon class="cls-13" points="82.37 30.82 76.84 24.74 68.19 24.74 73.74 34.8 81.33 37.65 87.85 46.13 87.85 30.82 82.37 30.82"/>
        <polygon class="cls-11" points="98.91 24.74 93.38 30.82 87.9 30.82 87.85 30.82 87.85 46.13 87.85 46.19 87.87 46.16 87.9 46.13 94.42 37.65 102.01 34.8 107.56 24.74 98.91 24.74"/>
      </g>
      <rect class="cls-27" x="84.86" y="46.19" width="5.94" height="2.29"/>
      <rect class="cls-28" x="84.86" y="46.19" width="3.02" height="2.29"/>
    </g>
  </g>
</svg>
