<svg id="Layer_1" data-name="Layer 1" xmlns="http://www.w3.org/2000/svg" viewBox="0 0 249 249">
  <defs>
    <style>
      .cls-1 {
        fill: #fff;
      }

      .cls-2 {
        fill: #d2d2d2;
      }

      .cls-3 {
        fill: #c2c1c1;
      }

      .cls-4 {
        fill: #f29d1f;
      }

      .cls-5 {
        fill: #f0c419;
      }

      .cls-6 {
        fill: #1e2628;
      }

      .cls-7 {
        fill: #303a3e;
      }

      .cls-8 {
        fill: #b7b7b8;
      }

      .cls-9 {
        fill: #939393;
      }

      .cls-10 {
        fill: #95a5a6;
      }

      .cls-11 {
        fill: #7f8c8d;
      }

      .cls-12 {
        fill: #edf0f1;
      }

      .cls-13 {
        fill: #bdc3c7;
      }

      .cls-14 {
        fill: #76574f;
      }

      .cls-15 {
        fill: #927268;
      }

      .cls-16 {
        fill: #464f52;
      }

      .cls-17 {
        fill: #33393a;
      }
    </style>
  </defs>
  <title>construct</title>
  <rect class="cls-1" width="249" height="249"/>
  <g>
    <g>
      <g>
        <polygon class="cls-2" points="192.17 42.39 82.93 151.64 89.83 158.54 216 32.38 192.17 42.39"/>
        <polygon class="cls-3" points="216 32.38 89.83 158.54 96.74 165.45 205.98 56.2 216 32.38"/>
      </g>
      <g>
        <polygon class="cls-4" points="87.41 155.07 74.4 142.06 70.31 146.14 86.27 162.1 92.82 155.55 87.41 155.07"/>
        <polygon class="cls-5" points="93.31 160.96 92.82 155.55 86.27 162.1 102.23 178.06 106.32 173.97 93.31 160.96"/>
      </g>
      <g>
        <polygon class="cls-6" points="78.29 154.12 74.26 162.71 65.83 171.13 71.54 176.84 86.27 162.1 78.29 154.12"/>
        <polygon class="cls-7" points="86.27 162.1 71.54 176.84 77.24 182.54 85.66 174.12 94.25 170.08 86.27 162.1"/>
      </g>
      <g>
        <rect class="cls-4" x="238.63" y="390.55" width="4.3" height="8.06" transform="translate(-382.1 66.75) rotate(-45)"/>
        <rect class="cls-5" x="244.33" y="396.25" width="4.3" height="8.06" transform="translate(-384.46 72.45) rotate(-45)"/>
      </g>
      <g>
        <polygon class="cls-6" points="57.23 191.14 68.5 179.88 62.79 174.18 49.77 187.21 53.91 187.81 57.23 191.14"/>
        <polygon class="cls-7" points="60.56 194.47 61.17 198.61 74.2 185.58 68.5 179.88 57.23 191.14 60.56 194.47"/>
        <polygon class="cls-5" points="57.23 191.14 53.91 187.81 49.77 187.21 44.52 186.44 35.98 190.86 31.56 199.4 32.93 208.79 36.26 212.12 55.46 192.91 57.23 191.14"/>
        <polygon class="cls-4" points="61.94 203.85 61.17 198.61 60.56 194.47 57.23 191.14 55.46 192.91 36.26 212.12 39.58 215.44 48.97 216.82 57.51 212.39 61.94 203.85"/>
      </g>
    </g>
    <g>
      <g>
        <polygon class="cls-2" points="41.57 56.2 150.81 165.45 157.72 158.54 31.56 32.38 41.57 56.2"/>
        <polygon class="cls-3" points="31.56 32.38 157.72 158.54 164.62 151.64 55.38 42.39 31.56 32.38"/>
      </g>
      <g>
        <polygon class="cls-4" points="154.24 160.96 141.23 173.97 145.32 178.06 161.28 162.1 154.73 155.55 154.24 160.96"/>
        <polygon class="cls-5" points="160.14 155.07 154.73 155.55 161.28 162.1 177.24 146.14 173.15 142.06 160.14 155.07"/>
      </g>
      <g>
        <polygon class="cls-6" points="153.3 170.08 161.89 174.12 170.31 182.54 176.01 176.84 161.28 162.1 153.3 170.08"/>
        <polygon class="cls-7" points="161.28 162.1 176.01 176.84 181.72 171.13 173.29 162.71 169.26 154.12 161.28 162.1"/>
      </g>
      <g>
        <rect class="cls-4" x="344.26" y="398.13" width="8.06" height="4.3" transform="translate(-354.64 144.45) rotate(-45)"/>
        <rect class="cls-5" x="349.97" y="392.43" width="8.06" height="4.3" transform="translate(-348.94 146.81) rotate(-45)"/>
      </g>
      <g>
        <polygon class="cls-6" points="190.32 191.14 179.06 179.88 173.35 185.58 186.38 198.61 186.99 194.47 190.32 191.14"/>
        <polygon class="cls-7" points="193.64 187.81 197.79 187.21 184.76 174.18 179.06 179.88 190.32 191.14 193.64 187.81"/>
        <polygon class="cls-5" points="190.32 191.14 186.99 194.47 186.38 198.61 185.62 203.85 190.04 212.39 198.58 216.82 207.97 215.44 211.29 212.12 192.09 192.91 190.32 191.14"/>
        <polygon class="cls-4" points="203.03 186.44 197.79 187.21 193.64 187.81 190.32 191.14 192.09 192.91 211.29 212.12 214.62 208.79 216 199.4 211.57 190.86 203.03 186.44"/>
      </g>
    </g>
    <rect class="cls-8" x="287.87" y="341.89" width="3.06" height="19.53" transform="translate(-337.51 88.56) rotate(-45)"/>
    <rect class="cls-9" x="291.32" y="350.23" width="3.06" height="9.76" transform="translate(-338.94 92.01) rotate(-45)"/>
    <g>
      <polygon class="cls-10" points="123.78 15.71 104.92 33.37 104.92 66.34 142.63 66.34 142.63 33.37 123.78 15.71"/>
      <polygon class="cls-11" points="123.78 15.71 123.78 66.34 142.63 66.34 142.63 33.37 123.78 15.71"/>
      <polygon class="cls-12" points="140.5 35.78 140.5 40.06 136.74 40.06 136.74 35.78 130.72 35.78 130.72 40.06 126.96 40.06 126.96 35.78 120.94 35.78 120.94 40.06 116.83 40.06 116.83 35.78 110.81 35.78 110.81 40.06 107.05 40.06 107.05 35.78 101.03 35.78 101.03 40.06 101.03 46.27 107.05 46.27 110.81 46.27 116.83 46.27 120.94 46.27 126.96 46.27 130.72 46.27 136.74 46.27 140.5 46.27 146.52 46.27 146.52 40.06 146.52 35.78 140.5 35.78"/>
      <polygon class="cls-13" points="123.78 35.78 126.61 35.78 126.61 40.06 130.72 40.06 130.72 35.78 136.74 35.78 136.74 40.06 140.5 40.06 140.5 35.78 146.52 35.78 146.52 40.06 146.52 46.27 140.5 46.27 136.74 46.27 130.72 46.27 126.61 46.27 123.78 46.27 123.78 35.78"/>
    </g>
    <g>
      <polygon class="cls-10" points="123.78 182.66 104.92 200.32 104.92 233.29 142.63 233.29 142.63 200.32 123.78 182.66"/>
      <polygon class="cls-11" points="123.78 182.66 123.78 233.29 142.63 233.29 142.63 200.32 123.78 182.66"/>
      <polygon class="cls-12" points="140.5 202.73 140.5 207.01 136.74 207.01 136.74 202.73 130.72 202.73 130.72 207.01 126.96 207.01 126.96 202.73 120.94 202.73 120.94 207.01 116.83 207.01 116.83 202.73 110.81 202.73 110.81 207.01 107.05 207.01 107.05 202.73 101.03 202.73 101.03 207.01 101.03 213.22 107.05 213.22 110.81 213.22 116.83 213.22 120.94 213.22 126.96 213.22 130.72 213.22 136.74 213.22 140.5 213.22 146.52 213.22 146.52 207.01 146.52 202.73 140.5 202.73"/>
      <polygon class="cls-13" points="123.78 202.73 126.61 202.73 126.61 207.01 130.72 207.01 130.72 202.73 136.74 202.73 136.74 207.01 140.5 207.01 140.5 202.73 146.52 202.73 146.52 207.01 146.52 213.22 140.5 213.22 136.74 213.22 130.72 213.22 126.61 213.22 123.78 213.22 123.78 202.73"/>
    </g>
    <g>
      <polygon class="cls-14" points="186.98 98.48 184.1 101.36 186.07 109.96 192.26 103.76 186.98 98.48"/>
      <polygon class="cls-15" points="198.46 97.57 189.85 95.6 186.98 98.48 192.26 103.76 198.46 97.57"/>
      <rect class="cls-15" x="393.21" y="331.19" width="5.15" height="35.84" transform="translate(-304.54 163.04) rotate(-45)"/>
      <polygon class="cls-16" points="204.52 93.33 193.18 104.68 206.56 118.07 217.91 106.72 217.65 103.81 207.17 93.33 204.52 93.33"/>
      <polygon class="cls-17" points="181.83 116.03 181.83 118.67 192.31 129.15 195.22 129.41 206.56 118.07 193.18 104.68 181.83 116.03"/>
      <rect class="cls-14" x="389.57" y="334.83" width="5.15" height="35.84" transform="translate(-308.19 161.53) rotate(-45)"/>
    </g>
    <g>
      <polygon class="cls-14" points="62.02 98.48 59.15 95.6 50.54 97.57 56.74 103.76 62.02 98.48"/>
      <polygon class="cls-15" points="62.93 109.96 64.9 101.36 62.02 98.48 56.74 103.76 62.93 109.96"/>
      <rect class="cls-15" x="186.16" y="350.17" width="35.84" height="5.15" transform="translate(-363.27 28.55) rotate(-45)"/>
      <polygon class="cls-16" points="67.17 116.03 55.82 104.68 42.44 118.07 53.78 129.41 56.69 129.15 67.17 118.67 67.17 116.03"/>
      <polygon class="cls-17" points="44.48 93.33 41.83 93.33 31.35 103.81 31.09 106.72 42.44 118.07 55.82 104.68 44.48 93.33"/>
      <rect class="cls-14" x="182.52" y="346.53" width="35.84" height="5.15" transform="translate(-361.76 24.91) rotate(-45)"/>
    </g>
  </g>
</svg>
