<?xml version="1.0" encoding="utf-8"?>
<!-- Generator: Adobe Illustrator 20.1.0, SVG Export Plug-In . SVG Version: 6.00 Build 0)  -->
<svg version="1.1" id="Layer_1" xmlns="http://www.w3.org/2000/svg" xmlns:xlink="http://www.w3.org/1999/xlink" x="0px" y="0px"
	 viewBox="0 0 249 249" style="enable-background:new 0 0 249 249;" xml:space="preserve">
<style type="text/css">
	.st0{fill:#D2D2D2;}
	.st1{fill:#C2C1C1;}
	.st2{fill:#F29D1F;}
	.st3{fill:#F0C419;}
	.st4{fill:#1E2628;}
	.st5{fill:#303A3E;}
	.st6{fill:#B7B7B8;}
	.st7{fill:#939393;}
	.st8{fill:#95A5A6;}
	.st9{fill:#7F8C8D;}
	.st10{fill:#EDF0F1;}
	.st11{fill:#BDC3C7;}
	.st12{fill:#76574F;}
	.st13{fill:#927268;}
	.st14{fill:#464F52;}
	.st15{fill:#33393A;}
</style>
<title>construct</title>
<g>
	<g>
		<g>
			<polygon class="st0" points="192.2,42.4 82.9,151.6 89.8,158.5 216,32.4 			"/>
			<polygon class="st1" points="216,32.4 89.8,158.5 96.7,165.4 206,56.2 			"/>
		</g>
		<g>
			<polygon class="st2" points="87.4,155.1 74.4,142.1 70.3,146.1 86.3,162.1 92.8,155.6 			"/>
			<polygon class="st3" points="93.3,161 92.8,155.6 86.3,162.1 102.2,178.1 106.3,174 			"/>
		</g>
		<g>
			<polygon class="st4" points="78.3,154.1 74.3,162.7 65.8,171.1 71.5,176.8 86.3,162.1 			"/>
			<polygon class="st5" points="86.3,162.1 71.5,176.8 77.2,182.5 85.7,174.1 94.3,170.1 			"/>
		</g>
		<g>
			
				<rect x="65" y="171.5" transform="matrix(0.7071 -0.7071 0.7071 0.7071 -104.4265 98.8981)" class="st2" width="4.3" height="8.1"/>
			
				<rect x="70.7" y="177.2" transform="matrix(0.7071 -0.7071 0.7071 0.7071 -106.7872 104.5989)" class="st3" width="4.3" height="8.1"/>
		</g>
		<g>
			<polygon class="st4" points="57.2,191.1 68.5,179.9 62.8,174.2 49.8,187.2 53.9,187.8 			"/>
			<polygon class="st5" points="60.6,194.5 61.2,198.6 74.2,185.6 68.5,179.9 57.2,191.1 			"/>
			<polygon class="st3" points="57.2,191.1 53.9,187.8 49.8,187.2 44.5,186.4 36,190.9 31.6,199.4 32.9,208.8 36.3,212.1 
				55.5,192.9 			"/>
			<polygon class="st2" points="61.9,203.9 61.2,198.6 60.6,194.5 57.2,191.1 55.5,192.9 36.3,212.1 39.6,215.4 49,216.8 
				57.5,212.4 			"/>
		</g>
	</g>
	<g>
		<g>
			<polygon class="st0" points="41.6,56.2 150.8,165.4 157.7,158.5 31.6,32.4 			"/>
			<polygon class="st1" points="31.6,32.4 157.7,158.5 164.6,151.6 55.4,42.4 			"/>
		</g>
		<g>
			<polygon class="st2" points="154.2,161 141.2,174 145.3,178.1 161.3,162.1 154.7,155.6 			"/>
			<polygon class="st3" points="160.1,155.1 154.7,155.6 161.3,162.1 177.2,146.1 173.1,142.1 			"/>
		</g>
		<g>
			<polygon class="st4" points="153.3,170.1 161.9,174.1 170.3,182.5 176,176.8 161.3,162.1 			"/>
			<polygon class="st5" points="161.3,162.1 176,176.8 181.7,171.1 173.3,162.7 169.3,154.1 			"/>
		</g>
		<g>
			
				<rect x="170.6" y="179.1" transform="matrix(0.7071 -0.7071 0.7071 0.7071 -76.9743 176.5925)" class="st2" width="8.1" height="4.3"/>
			
				<rect x="176.4" y="173.4" transform="matrix(0.7071 -0.7071 0.7071 0.7071 -71.2665 178.9562)" class="st3" width="8.1" height="4.3"/>
		</g>
		<g>
			<polygon class="st4" points="190.3,191.1 179.1,179.9 173.4,185.6 186.4,198.6 187,194.5 			"/>
			<polygon class="st5" points="193.6,187.8 197.8,187.2 184.8,174.2 179.1,179.9 190.3,191.1 			"/>
			<polygon class="st3" points="190.3,191.1 187,194.5 186.4,198.6 185.6,203.9 190,212.4 198.6,216.8 208,215.4 211.3,212.1 
				192.1,192.9 			"/>
			<polygon class="st2" points="203,186.4 197.8,187.2 193.6,187.8 190.3,191.1 192.1,192.9 211.3,212.1 214.6,208.8 216,199.4 
				211.6,190.9 			"/>
		</g>
	</g>
	
		<rect x="114.3" y="122.8" transform="matrix(0.7071 -0.7071 0.7071 0.7071 -59.8364 120.7039)" class="st6" width="3.1" height="19.5"/>
	
		<rect x="117.7" y="131.2" transform="matrix(0.7071 -0.7071 0.7071 0.7071 -61.2672 124.1568)" class="st7" width="3.1" height="9.8"/>
	<g>
		<polygon class="st8" points="123.8,15.7 104.9,33.4 104.9,66.3 142.6,66.3 142.6,33.4 		"/>
		<polygon class="st9" points="123.8,15.7 123.8,66.3 142.6,66.3 142.6,33.4 		"/>
		<polygon class="st10" points="140.5,35.8 140.5,40.1 136.7,40.1 136.7,35.8 130.7,35.8 130.7,40.1 127,40.1 127,35.8 120.9,35.8 
			120.9,40.1 116.8,40.1 116.8,35.8 110.8,35.8 110.8,40.1 107.1,40.1 107.1,35.8 101,35.8 101,40.1 101,46.3 107.1,46.3 
			110.8,46.3 116.8,46.3 120.9,46.3 127,46.3 130.7,46.3 136.7,46.3 140.5,46.3 146.5,46.3 146.5,40.1 146.5,35.8 		"/>
		<polygon class="st11" points="123.8,35.8 126.6,35.8 126.6,40.1 130.7,40.1 130.7,35.8 136.7,35.8 136.7,40.1 140.5,40.1 
			140.5,35.8 146.5,35.8 146.5,40.1 146.5,46.3 140.5,46.3 136.7,46.3 130.7,46.3 126.6,46.3 123.8,46.3 		"/>
	</g>
	<g>
		<polygon class="st8" points="123.8,182.7 104.9,200.3 104.9,233.3 142.6,233.3 142.6,200.3 		"/>
		<polygon class="st9" points="123.8,182.7 123.8,233.3 142.6,233.3 142.6,200.3 		"/>
		<polygon class="st10" points="140.5,202.7 140.5,207 136.7,207 136.7,202.7 130.7,202.7 130.7,207 127,207 127,202.7 120.9,202.7 
			120.9,207 116.8,207 116.8,202.7 110.8,202.7 110.8,207 107.1,207 107.1,202.7 101,202.7 101,207 101,213.2 107.1,213.2 
			110.8,213.2 116.8,213.2 120.9,213.2 127,213.2 130.7,213.2 136.7,213.2 140.5,213.2 146.5,213.2 146.5,207 146.5,202.7 		"/>
		<polygon class="st11" points="123.8,202.7 126.6,202.7 126.6,207 130.7,207 130.7,202.7 136.7,202.7 136.7,207 140.5,207 
			140.5,202.7 146.5,202.7 146.5,207 146.5,213.2 140.5,213.2 136.7,213.2 130.7,213.2 126.6,213.2 123.8,213.2 		"/>
	</g>
	<g>
		<polygon class="st12" points="187,98.5 184.1,101.4 186.1,110 192.3,103.8 		"/>
		<polygon class="st13" points="198.5,97.6 189.9,95.6 187,98.5 192.3,103.8 		"/>
		
			<rect x="219.6" y="112.1" transform="matrix(0.7071 -0.7071 0.7071 0.7071 -26.8741 195.1918)" class="st13" width="5.1" height="35.8"/>
		<polygon class="st14" points="204.5,93.3 193.2,104.7 206.6,118.1 217.9,106.7 217.6,103.8 207.2,93.3 		"/>
		<polygon class="st15" points="181.8,116 181.8,118.7 192.3,129.1 195.2,129.4 206.6,118.1 193.2,104.7 		"/>
		
			<rect x="216" y="115.8" transform="matrix(0.7071 -0.7071 0.7071 0.7071 -30.5154 193.6763)" class="st12" width="5.1" height="35.8"/>
	</g>
	<g>
		<polygon class="st12" points="62,98.5 59.2,95.6 50.5,97.6 56.7,103.8 		"/>
		<polygon class="st13" points="62.9,110 64.9,101.4 62,98.5 56.7,103.8 		"/>
		
			<rect x="12.5" y="131.1" transform="matrix(0.7071 -0.7071 0.7071 0.7071 -85.5975 60.6935)" class="st13" width="35.8" height="5.1"/>
		<polygon class="st14" points="67.2,116 55.8,104.7 42.4,118.1 53.8,129.4 56.7,129.1 67.2,118.7 		"/>
		<polygon class="st15" points="44.5,93.3 41.8,93.3 31.4,103.8 31.1,106.7 42.4,118.1 55.8,104.7 		"/>
		
			<rect x="8.9" y="127.5" transform="matrix(0.7071 -0.7071 0.7071 0.7071 -84.0891 57.055)" class="st12" width="35.8" height="5.1"/>
	</g>
</g>
</svg>
