<svg id="Layer_1" data-name="Layer 1" xmlns="http://www.w3.org/2000/svg" viewBox="0 0 52.35 52.42">
  <defs>
    <style>
      .cls-1 {
        fill: #e64d3c;
      }

      .cls-2 {
        fill: #cc3e36;
      }

      .cls-3 {
        fill: #576d7d;
      }

      .cls-4 {
        fill: #3d5264;
      }

      .cls-5 {
        fill: #465c69;
      }

      .cls-6 {
        fill: #fff;
      }

      .cls-7 {
        fill: #e5e5e5;
      }
    </style>
  </defs>
  <title>cross_church</title>
  <g>
    <g>
      <polygon class="cls-1" points="49.12 19.27 43.29 22.26 29.91 22.5 30.15 9.07 33.15 3.24 37.6 0 33.79 0 26.18 0 18.58 0 14.77 0 19.22 3.24 22.22 9.07 22.46 22.5 22.46 22.5 22.46 22.5 9.07 22.26 3.24 19.27 0 14.81 0 18.62 0 26.23 0 33.83 0 37.64 3.24 33.19 9.07 30.19 22.46 29.95 22.22 43.36 19.22 49.19 14.77 52.42 18.58 52.42 26.18 52.42 33.79 52.42 37.6 52.42 33.15 49.19 30.15 43.36 29.91 29.95 43.29 30.19 49.12 33.19 52.35 37.64 52.35 33.83 52.35 26.23 52.35 18.62 52.35 14.81 49.12 19.27"/>
      <polygon class="cls-2" points="49.12 19.27 43.29 22.26 29.91 22.5 30.15 9.07 33.15 3.24 37.6 0 33.79 0 26.18 0 26.18 0 26.18 52.42 26.18 52.42 33.79 52.42 37.6 52.42 33.15 49.19 30.15 43.36 29.91 29.95 43.29 30.19 49.12 33.19 52.35 37.64 52.35 33.83 52.35 26.23 52.35 18.62 52.35 14.81 49.12 19.27"/>
    </g>
    <g>
      <polygon class="cls-3" points="39.6 5.97 32.78 3.95 30.15 9.07 30.13 10.04 34.44 12.35 30.67 16.13 12.76 34.04 9.14 38.98 11.95 44.76 19.59 48.48 22.22 43.36 22.24 42.38 17.91 39.2 35.83 21.29 39.6 17.51 43.23 13.44 39.6 5.97"/>
      <polygon class="cls-4" points="30.15 43.36 33.15 49.19 43.23 44.28 38.53 43.13 40.15 39.2 30.15 43.36"/>
      <polygon class="cls-4" points="22.22 9.06 19.23 3.24 9.15 8.14 13.84 9.29 12.22 13.22 22.22 9.06"/>
      <polygon class="cls-5" points="11.95 44.76 10.57 41.93 14.37 37.14 38.67 13.22 41.4 9.67 43.23 13.44 39.6 17.51 17.91 39.2 11.95 44.76"/>
      <polygon class="cls-4" points="17.91 39.2 11.95 44.76 19.59 48.48 22.22 43.36 22.24 42.38 17.91 39.2"/>
      <polygon class="cls-4" points="34.44 12.35 39.6 5.97 32.78 3.95 30.15 9.07 30.13 10.04 34.44 12.35"/>
    </g>
    <g>
      <g>
        <polygon class="cls-6" points="28.19 27.04 26.85 25.7 28.65 23.9 27.99 23.24 26.18 25.04 24.84 23.7 24.18 24.36 25.52 25.7 23.72 27.51 24.38 28.17 26.18 26.36 27.53 27.7 28.19 27.04"/>
        <polygon class="cls-6" points="36.47 18.76 35.13 17.42 36.93 15.62 36.27 14.96 34.47 16.76 33.13 15.42 32.47 16.08 33.81 17.42 32 19.22 32.66 19.89 34.47 18.08 35.81 19.42 36.47 18.76"/>
        <polygon class="cls-6" points="19.91 35.33 18.56 33.98 20.37 32.18 19.71 31.52 17.9 33.33 16.56 31.98 15.9 32.64 17.24 33.98 15.44 35.79 16.1 36.45 17.9 34.65 19.24 35.99 19.91 35.33"/>
      </g>
      <polygon class="cls-7" points="36.59 15.27 36.93 15.62 35.13 17.42 36.47 18.76 35.81 19.42 34.47 18.08 32.66 19.89 32.28 19.51 36.59 15.27"/>
      <polygon class="cls-7" points="28.24 23.49 28.65 23.9 26.85 25.7 28.19 27.04 27.53 27.7 26.18 26.36 24.38 28.17 23.93 27.72 28.24 23.49"/>
      <polygon class="cls-7" points="19.89 31.7 20.37 32.18 18.56 33.98 19.91 35.33 19.24 35.99 17.9 34.65 16.1 36.45 15.59 35.94 19.89 31.7"/>
    </g>
  </g>
</svg>
