<svg id="Layer_1" data-name="Layer 1" xmlns="http://www.w3.org/2000/svg" viewBox="0 0 158.41 158.41">
  <defs>
    <style>
      .cls-1 {
        fill: #fff;
        opacity: 0;
      }

      .cls-2 {
        fill: none;
      }

      .cls-3 {
        fill: #9f9f9f;
      }

      .cls-4 {
        fill: #bcbcbc;
      }
    </style>
  </defs>
  <title>curse</title>
  <rect class="cls-1" width="158.41" height="158.41"/>
  <g>
    <polygon class="cls-2" points="61.05 60.68 45.63 60.68 37.91 74.04 45.63 87.4 61.05 87.4 68.77 74.04 61.05 60.68"/>
    <polygon class="cls-2" points="97.35 60.68 89.64 74.04 97.35 87.4 112.78 87.4 120.5 74.04 112.78 60.68 97.35 60.68"/>
    <polygon class="cls-2" points="66.6 108.06 79.2 108.06 89.89 108.06 79.2 95.46 79.2 95.46 66.6 108.06"/>
    <path class="cls-3" d="M331.72,306.29l-32.2-14.16-11.36-3.8v93l10.69,12.6H288.16v39.38h2.3l4.91,8.5,4.91-8.5h2.62l4.91,8.5,4.91-8.5h1.65v-6.66h17.37V403.06l17.36-25.66V334.85Zm-10,67H306.32l-7.71-13.36,7.71-13.36h15.43l7.71,13.36Z" transform="translate(-208.96 -285.88)"/>
    <path class="cls-4" d="M275.56,393.94l12.6-12.6h0v-93l-11.36,3.8-32.2,14.16-17.36,28.56V377.4l17.36,25.66v23.61H262v6.66h1.65l4.91,8.5,4.91-8.5H276l4.91,8.5,4.91-8.5h2.3V393.94ZM270,373.28H254.59l-7.71-13.36,7.71-13.36H270l7.71,13.36Z" transform="translate(-208.96 -285.88)"/>
  </g>
</svg>
