<svg id="Layer_1" data-name="Layer 1" xmlns="http://www.w3.org/2000/svg" viewBox="0 0 457.22 374.24"><defs><style>.cls-1{fill:#3d5264;}.cls-2{fill:#576d7d;}.cls-3{fill:#cc3e36;}.cls-4{fill:#e64d3c;}</style></defs><title>early_stages</title><polygon class="cls-1" points="189.44 29.46 121.59 70.53 82.41 141.64 82.41 223.76 121.59 294.88 189.44 335.94 228.62 335.94 228.62 29.46 189.44 29.46"/><polygon class="cls-2" points="335.64 70.53 267.79 29.46 228.62 29.46 228.62 335.94 267.79 335.94 335.64 294.88 374.82 223.76 374.82 141.64 335.64 70.53"/><polygon class="cls-3" points="359.97 160.33 250.99 160.33 250.99 40.62 228.62 57.25 228.62 308.16 250.99 324.79 250.99 205.08 359.97 205.08 343.33 182.7 359.97 160.33"/><polygon class="cls-4" points="206.24 40.62 206.24 160.33 97.27 160.33 113.9 182.7 97.27 205.08 206.24 205.08 206.24 324.79 228.62 308.16 228.62 57.25 206.24 40.62"/><polygon class="cls-1" points="387.29 0 359.31 19.29 362.23 44.75 370.68 65.28 387.29 76.34 403.89 65.28 412.34 44.75 415.26 19.29 387.29 0"/><polygon class="cls-2" points="387.29 0 387.29 76.34 403.89 65.28 412.34 44.75 415.26 19.29 387.29 0"/><polygon class="cls-3" points="409.94 34.31 391.14 34.31 391.14 13.66 387.29 16.53 383.43 13.66 383.43 34.31 364.63 34.31 367.5 38.17 364.63 42.03 383.43 42.03 383.43 62.68 387.29 59.81 391.14 62.68 391.14 42.03 409.94 42.03 407.07 38.17 409.94 34.31"/><polygon class="cls-4" points="387.29 59.81 387.29 16.53 383.43 13.66 383.43 34.31 364.63 34.31 367.5 38.17 364.63 42.03 383.43 42.03 383.43 62.68 387.29 59.81"/><polygon class="cls-1" points="429.24 95.81 401.27 115.1 404.19 140.56 412.63 161.09 429.24 172.15 445.85 161.09 454.3 140.56 457.21 115.1 429.24 95.81"/><polygon class="cls-2" points="429.24 95.81 429.24 172.15 445.85 161.09 454.3 140.56 457.21 115.1 429.24 95.81"/><polygon class="cls-3" points="451.9 130.12 433.1 130.12 433.1 109.47 429.24 112.34 425.38 109.47 425.38 130.12 406.59 130.12 409.46 133.98 406.59 137.84 425.38 137.84 425.38 158.49 429.24 155.62 433.1 158.49 433.1 137.84 451.9 137.84 449.03 133.98 451.9 130.12"/><polygon class="cls-4" points="429.24 155.62 429.24 112.34 425.38 109.47 425.38 130.12 406.59 130.12 409.46 133.98 406.59 137.84 425.38 137.84 425.38 158.49 429.24 155.62"/><polygon class="cls-1" points="429.24 206.76 401.27 226.05 404.19 251.51 412.63 272.04 429.24 283.1 445.85 272.04 454.3 251.51 457.21 226.05 429.24 206.76"/><polygon class="cls-2" points="429.24 206.76 429.24 283.1 445.85 272.04 454.3 251.51 457.21 226.05 429.24 206.76"/><polygon class="cls-3" points="451.9 241.07 433.1 241.07 433.1 220.42 429.24 223.29 425.38 220.42 425.38 241.07 406.59 241.07 409.46 244.93 406.59 248.78 425.38 248.78 425.38 269.43 429.24 266.56 433.1 269.43 433.1 248.78 451.9 248.78 449.03 244.93 451.9 241.07"/><polygon class="cls-4" points="429.24 266.56 429.24 223.29 425.38 220.42 425.38 241.07 406.59 241.07 409.46 244.93 406.59 248.78 425.38 248.78 425.38 269.43 429.24 266.56"/><polygon class="cls-1" points="387.29 297.77 359.31 317.06 362.23 342.53 370.68 363.05 387.29 374.11 403.89 363.05 412.34 342.53 415.26 317.06 387.29 297.77"/><polygon class="cls-2" points="387.29 297.77 387.29 374.11 403.89 363.05 412.34 342.53 415.26 317.06 387.29 297.77"/><polygon class="cls-3" points="409.94 332.08 391.14 332.08 391.14 311.44 387.29 314.3 383.43 311.44 383.43 332.08 364.63 332.08 367.5 335.94 364.63 339.8 383.43 339.8 383.43 360.45 387.29 357.58 391.14 360.45 391.14 339.8 409.94 339.8 407.07 335.94 409.94 332.08"/><polygon class="cls-4" points="387.29 357.58 387.29 314.3 383.43 311.44 383.43 332.08 364.63 332.08 367.5 335.94 364.63 339.8 383.43 339.8 383.43 360.45 387.29 357.58"/><polygon class="cls-1" points="69.93 0.13 97.9 19.42 94.99 44.88 86.54 65.41 69.93 76.47 53.32 65.41 44.87 44.88 41.96 19.42 69.93 0.13"/><polygon class="cls-2" points="69.93 0.13 69.93 76.47 53.32 65.41 44.87 44.88 41.96 19.42 69.93 0.13"/><polygon class="cls-3" points="47.27 34.44 66.07 34.44 66.07 13.79 69.93 16.66 73.79 13.79 73.79 34.44 92.59 34.44 89.72 38.3 92.59 42.16 73.79 42.16 73.79 62.8 69.93 59.94 66.07 62.8 66.07 42.16 47.27 42.16 50.14 38.3 47.27 34.44"/><polygon class="cls-4" points="69.93 59.94 69.93 16.66 73.79 13.79 73.79 34.44 92.59 34.44 89.72 38.3 92.59 42.16 73.79 42.16 73.79 62.8 69.93 59.94"/><polygon class="cls-1" points="27.97 95.94 55.94 115.22 53.03 140.69 44.58 161.22 27.97 172.28 11.36 161.22 2.91 140.69 0 115.22 27.97 95.94"/><polygon class="cls-2" points="27.97 95.94 27.97 172.28 11.36 161.22 2.91 140.69 0 115.22 27.97 95.94"/><polygon class="cls-3" points="5.32 130.25 24.11 130.25 24.11 109.6 27.97 112.47 31.83 109.6 31.83 130.25 50.63 130.25 47.76 134.1 50.63 137.96 31.83 137.96 31.83 158.61 27.97 155.74 24.11 158.61 24.11 137.96 5.32 137.96 8.18 134.1 5.32 130.25"/><polygon class="cls-4" points="27.97 155.74 27.97 112.47 31.83 109.6 31.83 130.25 50.63 130.25 47.76 134.1 50.63 137.96 31.83 137.96 31.83 158.61 27.97 155.74"/><polygon class="cls-1" points="27.97 206.88 55.94 226.17 53.03 251.64 44.58 272.16 27.97 283.22 11.36 272.16 2.91 251.64 0 226.17 27.97 206.88"/><polygon class="cls-2" points="27.97 206.88 27.97 283.22 11.36 272.16 2.91 251.64 0 226.17 27.97 206.88"/><polygon class="cls-3" points="5.32 241.19 24.11 241.19 24.11 220.54 27.97 223.41 31.83 220.54 31.83 241.19 50.63 241.19 47.76 245.05 50.63 248.91 31.83 248.91 31.83 269.56 27.97 266.69 24.11 269.56 24.11 248.91 5.32 248.91 8.18 245.05 5.32 241.19"/><polygon class="cls-4" points="27.97 266.69 27.97 223.41 31.83 220.54 31.83 241.19 50.63 241.19 47.76 245.05 50.63 248.91 31.83 248.91 31.83 269.56 27.97 266.69"/><polygon class="cls-1" points="69.93 297.9 97.9 317.19 94.99 342.65 86.54 363.18 69.93 374.24 53.32 363.18 44.87 342.65 41.96 317.19 69.93 297.9"/><polygon class="cls-2" points="69.93 297.9 69.93 374.24 53.32 363.18 44.87 342.65 41.96 317.19 69.93 297.9"/><polygon class="cls-3" points="47.27 332.21 66.07 332.21 66.07 311.56 69.93 314.43 73.79 311.56 73.79 332.21 92.59 332.21 89.72 336.07 92.59 339.93 73.79 339.93 73.79 360.58 69.93 357.71 66.07 360.58 66.07 339.93 47.27 339.93 50.14 336.07 47.27 332.21"/><polygon class="cls-4" points="69.93 357.71 69.93 314.43 73.79 311.56 73.79 332.21 92.59 332.21 89.72 336.07 92.59 339.93 73.79 339.93 73.79 360.58 69.93 357.71"/></svg>