<svg id="Layer_1" data-name="Layer 1" xmlns="http://www.w3.org/2000/svg" viewBox="0 0 68.78 52.19">
  <defs>
    <style>
      .cls-1 {
        fill: #4fba6f;
      }
    </style>
  </defs>
  <title>europe</title>
  <g id="Europe">
    <path class="cls-1" d="M274.56,407.37l-2.81,7.5,6.47,3.47,7.59-6,2.62-1.59,5.15-.09,6.18,6.65-.56,2.34h-3l2.62,2.53.94-1.59,2.53-4.12-5.72-7.4,1.78.09,5.53,5.62v1.78l3.09,5.06,2.44.56-1.22-6,3.37-.09,3.09-.47-1.59-2.06,2.9-6.75s6.56-1.41,6.84-1.5-.66,2.81-.66,2.81l12,6.65,2.9-4.22-5.43-4.31.66-4.4-2.62-.94.09-2.72,4.31-3.19,6.47-2.53-5.72-3.56-6.28-12.56L329,371l-3.19-1-9.65,13.31-3.65-3.65,3.28.28,1.5-2.25-7-1.41L307.92,374l-8.71,9.28-4.69,2.9-.47,4.22,1.12,1.78,3.75-2.62-.19,6.09,3.19-1.12,1.5-5-.56-3.56,4.12-4.87.94,1.59-1.81,2.81v3.94l4.81-1.41-2.81,2.62L308,394l-1.87-1.87,0,4-6.25,2.25-3.19-.66-.84-2.06.94-2.06H294.9l-.09,3.94-3.65,1.22-3.94,3-5.9.19,2.16,2.9-1.41,5Z" transform="translate(-271.75 -369.98)"/>
    <polygon class="cls-1" points="14.34 18.65 12.46 23.05 13.4 26.14 10.12 29.52 14.34 30.55 17.34 28.2 15.46 26.1 14.62 22.21 16.3 20.24 14.34 18.65"/>
    <polygon class="cls-1" points="7.68 24.6 10.12 22.21 11.24 22.21 11.24 23.99 10.68 25.02 10.12 26.52 6.47 26.52 7.68 24.6"/>
  </g>
</svg>
