<svg id="Layer_1" data-name="Layer 1" xmlns="http://www.w3.org/2000/svg" viewBox="0 0 246.02 246.02">
  <defs>
    <style>
      .cls-1, .cls-4 {
        fill: #fff;
      }

      .cls-1 {
        opacity: 0;
      }

      .cls-2 {
        fill: #cc3e36;
      }

      .cls-3 {
        fill: #b72d2a;
      }
    </style>
  </defs>
  <title>failure</title>
  <rect class="cls-1" width="246.02" height="246.02"/>
  <g>
    <g>
      <polygon class="cls-2" points="123.01 245.29 123.01 245.29 177.3 215.33 123.01 245.29 123.01 245.29"/>
      <polygon class="cls-2" points="123.01 0.73 123.01 0.73 123.01 0.73 160.05 24.37 123.01 0.73"/>
      <polygon class="cls-2" points="85.97 24.37 31.8 44.75 44.93 149.91 68.72 215.33 123.01 245.29 123.01 0.73 85.97 24.37"/>
      <polygon class="cls-3" points="160.05 24.37 123.01 0.73 123.01 245.29 177.3 215.33 201.09 149.91 214.22 44.75 160.05 24.37"/>
    </g>
    <polygon class="cls-4" points="151.66 75.11 123.01 103.76 94.36 75.11 75.11 94.36 103.76 123.01 75.11 151.66 94.36 170.9 123.01 142.25 151.66 170.9 170.9 151.66 142.25 123.01 170.9 94.36 151.66 75.11"/>
  </g>
</svg>
