<svg id="Layer_1" data-name="Layer 1" xmlns="http://www.w3.org/2000/svg" viewBox="0 0 246.02 246.02">
  <defs>
    <style>
      .cls-1 {
        fill: #fff;
        opacity: 0;
      }

      .cls-2 {
        fill: #d2d2d2;
      }

      .cls-3 {
        fill: #c2c1c1;
      }

      .cls-4 {
        fill: #f29d1f;
      }

      .cls-5 {
        fill: #f0c419;
      }

      .cls-6 {
        fill: #1e2628;
      }

      .cls-7 {
        fill: #303a3e;
      }

      .cls-8 {
        fill: #b7b7b8;
      }

      .cls-9 {
        fill: #939393;
      }
    </style>
  </defs>
  <title>fear</title>
  <rect class="cls-1" width="246.02" height="246.02"/>
  <g>
    <g>
      <g>
        <polygon class="cls-2" points="207.8 21.1 72.37 156.53 80.93 165.09 237.33 8.69 207.8 21.1"/>
        <polygon class="cls-3" points="237.33 8.69 80.93 165.09 89.49 173.65 224.92 38.22 237.33 8.69"/>
      </g>
      <g>
        <polygon class="cls-4" points="77.93 160.78 61.8 144.65 56.73 149.72 76.52 169.5 84.64 161.38 77.93 160.78"/>
        <polygon class="cls-5" points="85.24 168.09 84.64 161.38 76.52 169.5 96.3 189.28 101.37 184.22 85.24 168.09"/>
      </g>
      <g>
        <polygon class="cls-6" points="66.63 159.61 61.62 170.26 51.18 180.7 58.25 187.77 76.52 169.5 66.63 159.61"/>
        <polygon class="cls-7" points="76.52 169.5 58.25 187.77 65.32 194.84 75.76 184.4 86.41 179.39 76.52 169.5"/>
      </g>
      <g>
        <rect class="cls-4" x="215.81" y="423.18" width="5.33" height="10" transform="translate(-404.42 37.84) rotate(-45)"/>
        <rect class="cls-5" x="222.88" y="430.25" width="5.33" height="10" transform="translate(-407.35 44.91) rotate(-45)"/>
      </g>
      <g>
        <polygon class="cls-6" points="40.52 205.5 54.48 191.54 47.41 184.47 31.26 200.62 36.4 201.38 40.52 205.5"/>
        <polygon class="cls-7" points="44.64 209.62 45.4 214.76 61.55 198.61 54.48 191.54 40.52 205.5 44.64 209.62"/>
        <polygon class="cls-5" points="40.52 205.5 36.4 201.38 31.26 200.62 24.76 199.67 14.17 205.16 8.69 215.74 10.39 227.38 14.51 231.5 38.32 207.7 40.52 205.5"/>
        <polygon class="cls-4" points="46.35 221.26 45.4 214.76 44.64 209.62 40.52 205.5 38.32 207.7 14.51 231.5 18.64 235.63 30.27 237.33 40.86 231.84 46.35 221.26"/>
      </g>
    </g>
    <g>
      <g>
        <polygon class="cls-2" points="21.1 38.22 156.53 173.65 165.09 165.09 8.69 8.69 21.1 38.22"/>
        <polygon class="cls-3" points="8.69 8.69 165.09 165.09 173.65 156.53 38.22 21.1 8.69 8.69"/>
      </g>
      <g>
        <polygon class="cls-4" points="160.78 168.09 144.65 184.22 149.72 189.28 169.5 169.5 161.38 161.38 160.78 168.09"/>
        <polygon class="cls-5" points="168.09 160.78 161.38 161.38 169.5 169.5 189.28 149.72 184.22 144.65 168.09 160.78"/>
      </g>
      <g>
        <polygon class="cls-6" points="159.61 179.39 170.26 184.4 180.7 194.84 187.77 187.77 169.5 169.5 159.61 179.39"/>
        <polygon class="cls-7" points="169.5 169.5 187.77 187.77 194.84 180.7 184.4 170.26 179.39 159.61 169.5 169.5"/>
      </g>
      <g>
        <rect class="cls-4" x="346.77" y="432.58" width="10" height="5.33" transform="translate(-370.38 134.16) rotate(-45)"/>
        <rect class="cls-5" x="353.84" y="425.51" width="10" height="5.33" transform="translate(-363.31 137.09) rotate(-45)"/>
      </g>
      <g>
        <polygon class="cls-6" points="205.5 205.5 191.54 191.54 184.47 198.61 200.62 214.76 201.38 209.62 205.5 205.5"/>
        <polygon class="cls-7" points="209.62 201.38 214.76 200.62 198.61 184.47 191.54 191.54 205.5 205.5 209.62 201.38"/>
        <polygon class="cls-5" points="205.5 205.5 201.38 209.62 200.62 214.76 199.67 221.26 205.16 231.84 215.74 237.33 227.38 235.63 231.5 231.5 207.7 207.7 205.5 205.5"/>
        <polygon class="cls-4" points="221.26 199.67 214.76 200.62 209.62 201.38 205.5 205.5 207.7 207.7 231.5 231.5 235.63 227.38 237.33 215.74 231.84 205.16 221.26 199.67"/>
      </g>
    </g>
    <rect class="cls-8" x="276.86" y="362.86" width="3.79" height="24.21" transform="translate(-349.14 64.88) rotate(-45)"/>
    <rect class="cls-9" x="281.14" y="373.19" width="3.79" height="12.11" transform="translate(-350.92 69.16) rotate(-45)"/>
  </g>
</svg>
