<svg id="Layer_1" data-name="Layer 1" xmlns="http://www.w3.org/2000/svg" viewBox="0 0 158.41 158.41">
  <defs>
    <style>
      .cls-1 {
        fill: #fff;
        opacity: 0;
      }

      .cls-2 {
        fill: #f0c419;
      }

      .cls-3 {
        fill: #c9a72d;
      }

      .cls-4 {
        fill: #f29d1f;
      }

      .cls-5 {
        fill: #d58728;
      }

      .cls-6 {
        fill: #e64d3c;
      }

      .cls-7 {
        fill: #c03b2b;
      }
    </style>
  </defs>
  <title>grail</title>
  <rect class="cls-1" width="158.41" height="158.41"/>
  <g>
    <polygon class="cls-2" points="50.87 10.57 35.48 5.96 35.48 34.82 43.17 50 61.36 60.26 72.08 62.31 72.08 102.3 66.26 120.4 62.29 121.2 41.08 128.25 37.35 132.07 37.35 145.14 41.78 149.97 57.34 154.8 79.2 156.61 79.2 63.67 79.2 10.57 50.87 10.57"/>
    <polygon class="cls-3" points="97.05 60.26 115.23 50 122.92 34.82 122.92 5.96 107.54 10.57 79.2 10.57 79.2 63.67 79.2 156.61 101.06 154.8 116.63 149.97 121.06 145.14 121.06 132.07 117.33 128.25 96.11 121.2 92.15 120.4 86.32 102.3 86.32 62.31 97.05 60.26"/>
    <polygon class="cls-4" points="35.48 5.96 49.41 1.8 79.2 1.8 79.2 11.3 50.87 11.3 35.48 5.96"/>
    <polygon class="cls-5" points="122.92 5.96 109 1.8 79.2 1.8 79.2 11.3 107.54 11.3 122.92 5.96"/>
    <g>
      <polygon class="cls-6" points="47.17 18.7 47.17 29.03 51.64 26.45 51.64 21.28 47.17 18.7"/>
      <polygon class="cls-7" points="42.7 21.28 42.7 26.45 47.17 29.03 47.17 18.7 42.7 21.28"/>
    </g>
    <g>
      <polygon class="cls-6" points="65.42 26.8 65.42 37.13 69.9 34.55 69.9 29.38 65.42 26.8"/>
      <polygon class="cls-7" points="60.95 29.38 60.95 34.55 65.42 37.13 65.42 26.8 60.95 29.38"/>
    </g>
    <g>
      <polygon class="cls-6" points="110.19 18.7 110.19 29.03 105.72 26.45 105.72 21.28 110.19 18.7"/>
      <polygon class="cls-7" points="114.66 21.28 114.66 26.45 110.19 29.03 110.19 18.7 114.66 21.28"/>
    </g>
    <g>
      <polygon class="cls-6" points="91.94 26.8 91.94 37.13 87.47 34.55 87.47 29.38 91.94 26.8"/>
      <polygon class="cls-7" points="96.41 29.38 96.41 34.55 91.94 37.13 91.94 26.8 96.41 29.38"/>
    </g>
  </g>
</svg>
