<svg id="Layer_1" data-name="Layer 1" xmlns="http://www.w3.org/2000/svg" viewBox="0 0 61.08 61.1">
  <defs>
    <style>
      .cls-1 {
        fill: #576d7d;
      }

      .cls-2 {
        fill: #3d5264;
      }

      .cls-3 {
        fill: #fff;
      }

      .cls-4 {
        fill: #3e3e48;
      }

      .cls-5 {
        fill: #2d2e39;
      }

      .cls-6 {
        fill: #bcbd9b;
      }

      .cls-7 {
        fill: #d6d8bb;
      }

      .cls-8 {
        fill: #a59736;
      }

      .cls-9 {
        fill: #938531;
      }

      .cls-10 {
        fill: #968f81;
      }

      .cls-11 {
        fill: #7f786c;
      }

      .cls-12 {
        fill: #e1cbb9;
      }

      .cls-13 {
        fill: #cdae98;
      }

      .cls-14 {
        fill: #cb8e7e;
      }

      .cls-15 {
        fill: #b27669;
      }

      .cls-16 {
        fill: #393631;
      }

      .cls-17 {
        fill: #484642;
      }
    </style>
  </defs>
  <title>grand_master</title>
  <g>
    <g>
      <polygon class="cls-1" points="43.19 0 30.54 0 30.54 61.08 43.19 61.08 61.08 43.19 61.08 17.89 43.19 0"/>
      <polygon class="cls-2" points="17.89 0 0 17.89 0 43.19 17.89 61.08 17.91 61.1 30.54 61.1 30.54 61.08 30.54 0 17.89 0"/>
    </g>
    <polygon class="cls-3" points="57.76 43.23 52.22 39.68 49.96 38.62 48 33.15 48 27.55 45.06 22.3 45.06 18.24 41.73 8.92 38.3 5.39 35.26 3.82 30.54 2.94 25.81 3.82 22.78 5.39 19.35 8.92 16.02 18.24 16.02 22.3 13.08 27.55 13.08 33.15 11.12 38.62 8.86 39.68 3.31 43.23 2.21 45.37 17.91 61.08 23.81 61.06 23.81 56.01 37.26 56.01 37.26 61.06 43.16 61.08 58.87 45.37 57.76 43.23"/>
    <g>
      <g>
        <polyline class="cls-4" points="25.95 53.95 4.3 44.38 9.37 40.7 23.3 34.79 30.54 35.73 30.54 56.01 25.95 53.95"/>
        <polyline class="cls-5" points="35.13 53.95 56.78 44.38 51.71 40.7 37.77 34.79 30.54 35.73 30.54 56.01 35.13 53.95"/>
        <polygon class="cls-6" points="17.91 61.1 25.36 61.1 27.74 58.03 30.54 56.01 4.3 44.38 3.31 46.5 17.91 61.1"/>
        <polygon class="cls-7" points="35.7 61.08 43.18 61.08 57.76 46.5 56.78 44.38 30.54 56.01 33.34 58.03 35.7 61.08"/>
        <g>
          <polygon class="cls-8" points="30.54 50.79 30.54 58.75 33.27 56.88 34.91 56.17 34.91 50.79 30.54 50.79"/>
          <polygon class="cls-9" points="26.17 50.79 26.17 56.17 27.81 56.88 30.54 58.75 30.54 50.79 26.17 50.79"/>
        </g>
      </g>
      <g>
        <g>
          <polygon class="cls-10" points="46.7 33.27 46.7 27.7 43.77 22.23 43.77 18.49 40.8 9.62 30.54 9.62 20.27 9.62 17.3 18.49 17.3 22.23 14.37 27.7 14.37 33.27 12.01 39.6 23.75 34.94 23.75 41.73 24.61 45.61 27.6 47.13 29.79 46.16 30.54 42.53 31.29 46.16 33.48 47.13 36.47 45.61 37.33 41.73 37.33 34.94 49.06 39.6 46.7 33.27"/>
          <polygon class="cls-11" points="30.54 9.62 20.27 9.62 17.3 18.49 17.3 22.23 14.37 27.7 14.37 33.27 12.01 39.6 23.75 34.94 23.75 41.73 24.61 45.61 27.6 47.13 29.79 46.16 30.54 42.53 30.54 9.62"/>
          <path class="cls-12" d="M268.7,320.34l-2.79-1.42-4.87-1-4.87,1-2.79,1.42-2.61,2.91v3.68l1.23,5.68.16,3.24,3,6.85s3.56-2.39,3.72-2.39l2.13-.05,2.13.05c.16,0,3.72,2.39,3.72,2.39l3-6.85.16-3.24,1.23-5.68v-3.68Z" transform="translate(-230.51 -313.62)"/>
          <path class="cls-13" d="M268.7,320.34l-2.79-1.42-4.87-1v22.35l2.13.05c.16,0,3.72,2.39,3.72,2.39l3-6.85.16-3.24,1.23-5.68v-3.68Z" transform="translate(-230.51 -313.62)"/>
        </g>
        <g>
          <polygon class="cls-14" points="28.41 26.69 30.49 28.38 32.67 26.69 30.54 22.32 28.41 26.69"/>
          <polygon class="cls-15" points="30.54 22.32 28.41 26.69 30.49 28.38 30.54 28.34 30.54 22.32"/>
          <polygon class="cls-16" points="22.78 15.96 23.68 15.23 28.15 14.66 28.84 15.48 22.78 15.96"/>
          <polygon class="cls-17" points="25.81 20.01 24.52 19.34 25.02 18.26 26.61 18.26 27.1 19.34 25.81 20.01"/>
          <polygon class="cls-16" points="38.3 15.96 37.4 15.23 32.93 14.66 32.23 15.48 38.3 15.96"/>
          <polygon class="cls-17" points="35.26 20.01 36.55 19.34 36.06 18.26 34.47 18.26 33.97 19.34 35.26 20.01"/>
        </g>
      </g>
    </g>
  </g>
</svg>
