<svg id="Layer_1" data-name="Layer 1" xmlns="http://www.w3.org/2000/svg" viewBox="0 0 81.65 66.45">
  <defs>
    <style>
      .cls-1 {
        fill: #f0c419;
      }

      .cls-2 {
        fill: #1c1c23;
      }

      .cls-3 {
        fill: #3e3e48;
      }

      .cls-4 {
        fill: #2d2e39;
      }

      .cls-5 {
        fill: #c7a994;
      }

      .cls-6 {
        fill: #ad8e79;
      }

      .cls-7 {
        fill: #8e7665;
      }

      .cls-8 {
        fill: #e1bdb0;
      }

      .cls-9 {
        fill: #af9380;
      }

      .cls-10 {
        fill: #cea89c;
      }

      .cls-11 {
        fill: #a48772;
      }

      .cls-12 {
        fill: #8c725f;
      }

      .cls-13 {
        fill: #e2ba23;
      }

      .cls-14 {
        fill: #f0efef;
      }
    </style>
  </defs>
  <title>hold_coin</title>
  <g id="Hand_Coin" data-name="Hand Coin">
    <polygon class="cls-1" points="71.12 5.37 74.95 6.61 77.33 9.88 77.33 13.91 74.95 17.18 71.12 18.42 67.28 17.18 64.91 13.91 64.91 9.88 67.28 6.61 71.12 5.37"/>
    <g id="Arm">
      <polygon class="cls-2" points="42.73 56.43 44.43 55.12 44.43 52.12 40.45 54.19 42.73 56.43"/>
      <polygon class="cls-3" points="21.87 36.01 42.73 56.43 39.13 59.5 34.18 66.45 0 66.45 21.87 36.01"/>
      <polygon class="cls-4" points="21.87 36.01 31.84 45.77 22.45 57.76 23.07 66.45 0 66.45 21.87 36.01"/>
    </g>
    <g id="Hand">
      <path class="cls-5" d="M226.78,398.79h0l.37-6.42,4.36-15.49,22.05-12.09,14.45-2,9.76,2-.94,3.08-6.46,2.27-12.27,2.81-9.1,5.94-1.74,6.1,8.55,5.89H260l9.5-7.22,10-3.88,3.21,1.34-1.07,4.41-8.41,8.56-18.48,15.65c.94-.8-3.48,4.15-3.48,4.15l-5.89,3.08h0l-18.61-18.16Z" transform="translate(-204.91 -362.78)"/>
      <polygon class="cls-6" points="53.19 10.17 53.59 18.34 51.69 25.17 47.91 26.04 42.34 22.2 42.78 20.65 44.98 20.54 45.07 18.64 43.42 18.4 44.08 16.1 53.19 10.17"/>
      <polygon class="cls-7" points="52.38 22.66 52.68 27.07 52.11 28.09 50.91 28.09 47.91 26.04 51.69 25.17 52.38 22.66"/>
      <polygon class="cls-8" points="75.86 17.52 72.62 20.15 74.24 25.28 76.74 22.74 77.81 18.32 75.86 17.52"/>
      <polygon class="cls-8" points="72.86 2.01 66.14 0.63 66.96 2.01 70.85 2.91 72.86 2.01"/>
      <polygon class="cls-9" points="40.45 54.19 34.02 47.89 44.8 43.67 73.42 22.66 74.24 25.28 68.33 31.3 49.85 46.95 46.37 51.1 40.45 54.19"/>
      <polygon class="cls-10" points="74.24 25.28 73.42 22.66 77.81 18.32 76.74 22.74 74.24 25.28"/>
      <polygon class="cls-11" points="44.08 16.1 50.29 12.05 50.44 18.1 48.93 23.08 45.32 24.26 42.34 22.2 42.78 20.65 44.98 20.54 45.07 18.64 43.42 18.4 44.08 16.1"/>
      <polygon class="cls-12" points="52.38 22.66 52.58 25.6 48.71 26.58 47.91 26.04 51.69 25.17 52.38 22.66"/>
    </g>
    <polygon class="cls-13" points="76.07 8.15 77.33 9.88 77.33 13.91 74.95 17.18 71.12 18.42 67.28 17.18 66.14 15.6 76.07 8.15"/>
    <polygon class="cls-14" points="77.7 10.49 81.65 9.88 77.7 9.27 77.33 2.85 76.95 9.27 73 9.88 76.95 10.49 77.33 16.91 77.7 10.49"/>
  </g>
</svg>
