<svg id="Layer_1" data-name="Layer 1" xmlns="http://www.w3.org/2000/svg" viewBox="0 0 100.68 135.47">
  <defs>
    <style>
      .cls-1 {
        fill: #cc3e36;
      }

      .cls-2 {
        fill: #e64d3c;
      }

      .cls-3 {
        fill: #bcbd9b;
      }

      .cls-4 {
        fill: #836b5a;
      }

      .cls-5 {
        fill: #d6d8bb;
      }

      .cls-6 {
        fill: #645043;
      }

      .cls-7 {
        fill: #524137;
      }

      .cls-8 {
        fill: #5a4634;
      }

      .cls-9 {
        fill: #69523f;
      }

      .cls-10 {
        fill: #e1cbb9;
      }

      .cls-11 {
        fill: #ad8e79;
      }

      .cls-12 {
        fill: #c7a994;
      }

      .cls-13 {
        fill: #cb8e7e;
      }

      .cls-14 {
        fill: #b27669;
      }

      .cls-15 {
        fill: #433224;
      }

      .cls-16 {
        fill: #484642;
      }

      .cls-17 {
        fill: #4d3a2c;
      }
    </style>
  </defs>
  <title>hugues</title>
  <g>
    <g>
      <g>
        <polygon class="cls-1" points="68.77 71.26 53.48 71.26 53.48 54.46 50.34 56.8 47.2 54.46 47.2 71.26 31.91 71.26 34.24 74.4 31.91 77.54 47.2 77.54 47.2 94.34 50.34 92.01 53.48 94.34 53.48 77.54 68.77 77.54 66.44 74.4 68.77 71.26"/>
        <polygon class="cls-2" points="50.34 92.01 50.34 56.8 47.2 54.46 47.2 71.26 31.91 71.26 34.24 74.4 31.91 77.54 47.2 77.54 47.2 94.34 50.34 92.01"/>
      </g>
      <g>
        <polyline class="cls-3" points="45.87 48.37 24.79 39.05 29.72 35.46 43.29 29.7 50.34 30.63 50.34 50.37 45.87 48.37"/>
        <polygon class="cls-4" points="24.79 39.05 0 92.39 13.45 135.47 32.27 102.24 42.55 112.03 36.05 93.48 40.04 62.14 47.61 52.33 50.34 50.37 24.79 39.05"/>
        <polyline class="cls-5" points="54.81 48.37 75.89 39.05 70.96 35.46 57.39 29.7 50.34 30.63 50.34 50.37 54.81 48.37"/>
        <polygon class="cls-6" points="75.89 39.05 100.68 92.39 87.23 135.47 68.41 102.24 58.13 112.03 64.63 93.48 60.64 62.14 53.07 52.33 50.34 50.37 75.89 39.05"/>
        <polygon class="cls-6" points="32.27 102.24 27.6 65 13.45 135.47 32.27 102.24"/>
        <polygon class="cls-7" points="68.41 102.24 73.08 65 87.23 135.47 68.41 102.24"/>
      </g>
    </g>
    <g>
      <g>
        <g>
          <polygon class="cls-8" points="40.34 5.2 37.45 13.84 37.45 17.48 36.9 22.9 36.31 27.83 38.01 31.95 40.57 30.84 43.73 29.85 43.73 32.59 44.56 36.37 47.48 37.86 49.61 36.91 50.34 36.65 50.34 5.2 40.34 5.2"/>
          <polygon class="cls-9" points="60.34 5.2 63.23 13.84 63.23 17.48 63.78 22.9 64.37 27.83 62.67 31.95 60.11 30.84 56.95 29.85 56.95 32.59 56.12 36.37 53.2 37.86 51.07 36.91 50.34 36.65 50.34 5.2 60.34 5.2"/>
          <path class="cls-8" d="M292.09,357.81" transform="translate(-255.32 -328.82)"/>
        </g>
        <g>
          <polygon class="cls-10" points="56.04 24.14 58.98 17.47 56.04 24.14 56.04 24.14"/>
          <path class="cls-11" d="M300.92,329.81l-2.72,1.39L295.67,334v3.59l1.2,5.53.16,3.15L300,353s3.46-2.33,3.62-2.33l2.08-.05V328.82Z" transform="translate(-255.32 -328.82)"/>
          <path class="cls-12" d="M313.11,331.19l-2.72-1.39-4.74-1v21.77l2.08.05a7.22,7.22,0,0,1,.91.54l.63.41.33.22,1.75,1.16h0l2.95-6.67.16-3.15,1.2-5.53V334Z" transform="translate(-255.32 -328.82)"/>
        </g>
      </g>
      <g>
        <g>
          <polygon class="cls-13" points="50.34 23.77 52.42 21.87 50.34 16.86 48.26 21.87 50.34 16.86 50.34 23.77"/>
          <polygon class="cls-14" points="50.34 16.86 48.26 21.87 50.3 23.82 50.34 23.77 50.34 23.77 50.34 16.86"/>
        </g>
        <polygon class="cls-15" points="42.78 11.37 43.66 10.66 48.01 10.1 48.69 10.91 42.78 11.37"/>
        <polygon class="cls-16" points="45.74 15.32 44.48 14.66 44.96 13.61 46.51 13.61 46.99 14.66 45.74 15.32"/>
        <polygon class="cls-17" points="57.9 11.37 57.02 10.66 52.67 10.1 51.99 10.91 57.9 11.37"/>
        <polygon class="cls-16" points="54.94 15.32 56.2 14.66 55.72 13.61 54.17 13.61 53.69 14.66 54.94 15.32"/>
      </g>
      <polygon class="cls-8" points="40.28 8.64 44.12 3.15 50.34 1.03 50.34 0 45.6 0.98 42.89 2.37 40.34 5.2 40.28 8.64"/>
      <polygon class="cls-9" points="60.4 8.64 56.57 3.15 50.34 1.03 50.34 0 55.08 0.98 57.79 2.37 60.34 5.2 60.4 8.64"/>
    </g>
  </g>
</svg>
