<svg id="Layer_1" data-name="Layer 1" xmlns="http://www.w3.org/2000/svg" viewBox="0 0 544.25 180.13"><defs><style>.cls-1{fill:#83d2ed;}.cls-2{fill:#88ba40;}.cls-3{fill:#688d3c;}.cls-4{fill:#8ec541;}.cls-5{fill:#779c3e;}.cls-6{fill:#6e923d;}.cls-7{fill:#fff;}.cls-8{fill:#020202;opacity:0.12;}</style></defs><title>intro</title><polygon class="cls-1" points="0 0 0 107.21 26.64 55.28 41.87 89.1 50.02 72.8 58.74 90.22 76.67 55.28 91.98 89.3 103.31 78.31 110.49 88.88 118.54 72.8 135.75 107.21 421.46 107.21 439.18 78.31 449.41 89.3 463.24 55.28 476.89 84.76 482.3 72.8 488.91 87.43 496.13 73.81 506.36 86.52 520.19 47.21 544.25 107.21 544.25 0 0 0"/><polygon class="cls-2" points="499.08 107.21 497.84 107.21 487.3 107.21 478.41 107.21 466.76 107.21 444.92 107.21 442.13 107.21 421.46 107.21 135.75 107.21 122.94 107.21 101.33 107.21 100.05 107.21 96.96 107.21 67.23 107.21 50.02 107.21 32.81 107.21 0 107.21 0 133.92 113.11 148.35 181.28 152.27 242.93 172.56 329.24 150.27 425.52 136.52 544.25 130.45 544.25 107.21 501.87 107.21 499.08 107.21"/><polygon class="cls-3" points="58.74 90.22 50.02 72.8 41.87 89.1 50.02 107.21 58.74 90.22"/><polygon class="cls-4" points="50.02 107.21 41.87 89.1 26.64 55.28 0 107.21 32.81 107.21 50.02 107.21"/><polygon class="cls-3" points="135.75 107.21 118.54 72.8 110.49 88.88 122.94 107.21 135.75 107.21"/><polygon class="cls-4" points="67.23 107.21 96.96 107.21 100.05 107.21 101.33 107.21 122.94 107.21 110.49 88.88 103.31 78.31 91.98 89.3 76.67 55.28 58.74 90.22 50.02 107.21 67.23 107.21"/><polygon class="cls-3" points="488.91 87.43 482.3 72.8 476.89 84.76 483.15 98.27 488.91 87.43"/><polygon class="cls-4" points="506.36 86.52 496.13 73.81 488.91 87.43 483.15 98.27 476.89 84.76 463.24 55.28 449.41 89.3 439.18 78.31 421.46 107.21 442.13 107.21 444.92 107.21 466.76 107.21 478.41 107.21 487.3 107.21 497.84 107.21 499.08 107.21 501.87 107.21 544.25 107.21 520.19 47.21 506.36 86.52"/><polygon class="cls-5" points="181.28 152.27 113.11 148.35 0 133.92 0 180.13 213.58 180.13 242.93 172.56 181.28 152.27"/><polygon class="cls-6" points="329.24 150.27 242.93 172.56 213.58 180.13 265.94 180.13 544.25 180.13 544.25 130.45 425.52 136.52 329.24 150.27"/><polygon class="cls-7" points="121.21 12.31 91.26 12.31 61.32 12.31 56.84 16.36 56.84 20.74 61.32 24.29 61.32 24.29 56.84 28.33 56.84 32.72 61.32 36.26 91.27 36.26 96.04 36.26 100.52 32.72 100.52 28.33 96.05 24.29 121.21 24.29 125.69 20.74 125.69 16.36 121.21 12.31"/><polygon class="cls-7" points="122.29 26.24 122.14 26.24 113.66 26.24 110.27 29.63 110.27 33.3 113.66 36.26 122.14 36.26 122.29 36.26 125.69 33.3 125.69 29.63 122.29 26.24"/><polygon class="cls-7" points="511.07 14.29 510.88 14.29 500.72 14.29 496.66 18.35 496.66 22.75 500.72 26.3 510.88 26.3 511.07 26.3 515.13 22.75 515.13 18.35 511.07 14.29"/><polygon class="cls-7" points="489.04 26.28 493.51 22.74 493.51 18.36 489.03 14.31 459.09 14.31 432.74 14.31 428.26 18.36 428.26 22.74 432.74 26.28 489.04 26.28"/><polygon class="cls-7" points="240.66 49.74 240.47 49.74 230.31 49.74 226.25 53.8 226.25 58.2 230.31 61.76 240.47 61.76 240.66 61.76 244.72 58.2 244.72 53.8 240.66 49.74"/><polygon class="cls-7" points="218.63 61.74 223.1 58.2 223.1 53.81 218.62 49.76 188.68 49.76 162.33 49.76 157.85 53.81 157.85 58.2 162.33 61.74 218.63 61.74"/><polygon class="cls-7" points="381.94 29.84 352 29.84 322.05 29.84 317.57 33.89 317.57 38.28 322.05 41.82 322.05 41.82 317.58 45.87 317.58 50.26 322.06 53.8 352 53.8 356.78 53.8 361.26 50.26 361.26 45.87 356.78 41.82 381.94 41.82 386.42 38.28 386.42 33.89 381.94 29.84"/><polygon class="cls-7" points="383.03 43.77 382.87 43.77 374.4 43.77 371.01 47.16 371.01 50.83 374.4 53.8 382.87 53.8 383.03 53.8 386.42 50.83 386.42 47.16 383.03 43.77"/><rect class="cls-8" width="544.25" height="180.13"/></svg>