<svg id="Layer_1" data-name="Layer 1" xmlns="http://www.w3.org/2000/svg" viewBox="0 0 61.08 61.1">
  <defs>
    <style>
      .cls-1 {
        fill: #576d7d;
      }

      .cls-2 {
        fill: #3d5264;
      }

      .cls-3 {
        fill: #fff;
      }

      .cls-4 {
        fill: #d2d2d2;
      }

      .cls-5 {
        fill: none;
      }

      .cls-6 {
        fill: #303a3e;
      }

      .cls-7 {
        fill: #464f52;
      }

      .cls-8 {
        fill: #c2c1c1;
      }

      .cls-9 {
        fill: #f0c419;
      }

      .cls-10 {
        fill: #f29d1f;
      }
    </style>
  </defs>
  <title>knight</title>
  <g>
    <g>
      <polygon class="cls-1" points="43.19 0 30.54 0 30.54 61.08 43.19 61.08 61.08 43.19 61.08 17.89 43.19 0"/>
      <polygon class="cls-2" points="17.89 0 0 17.89 0 43.19 17.89 61.08 17.91 61.1 30.54 61.1 30.54 61.08 30.54 0 17.89 0"/>
      <polygon class="cls-3" points="57.72 44.66 45.08 38.95 45.81 36.12 45.81 11.63 39.74 7.01 30.54 4.94 21.33 7.01 15.27 11.63 15.27 36.12 16 38.95 3.36 44.66 2.41 45.57 17.91 61.08 25.26 28.38 17.77 28.38 17.77 21.29 30.54 21.29 43.31 21.29 43.31 28.38 35.81 28.38 43.16 61.08 58.67 45.57 57.72 44.66"/>
    </g>
    <g>
      <polygon class="cls-4" points="17.91 61.1 20.74 61.1 23.45 59.05 30.54 45.72 18.23 42.71 17.42 39.7 3.82 45.72 3.36 46.55 17.91 61.1"/>
      <g>
        <polygon class="cls-5" points="19.75 24.7 30.54 24.7 41.32 24.7 41.32 23.02 30.54 23.02 19.75 23.02 19.75 24.7"/>
        <path class="cls-6" d="M378.64,429.13h10.78V412.29l-8.76,1.86-5.41,4.19v23.88l1.86,6.7,12.31,2.93v-21H378.64ZM380,441.87v.72h-1.62v2.58h-.72v-2.58H376v-.72h1.62v-2.58h.72v2.58Z" transform="translate(-358.89 -406.11)"/>
        <path class="cls-7" d="M398.19,414.15l-8.76-1.86v16.84h10.78v1.69H389.43v21l12.31-2.93,1.86-6.7V418.34ZM403,442.59h-1.62v2.58h-.72v-2.58h-1.62v-.72h1.62v-2.58h.72v2.58H403Z" transform="translate(-358.89 -406.11)"/>
      </g>
      <polygon class="cls-8" points="40.33 61.08 43.19 61.08 57.72 46.55 57.26 45.72 43.66 39.7 42.85 42.71 30.54 45.72 37.62 59.05 40.33 61.08"/>
      <g>
        <polygon class="cls-9" points="27.9 45.94 22.19 45.94 20.46 44.21 17.77 46.9 20.46 49.59 22.19 47.86 27.9 47.86 30.54 47.86 30.54 45.94 27.9 45.94"/>
        <polygon class="cls-10" points="40.61 44.21 38.88 45.94 30.54 45.93 30.54 45.94 30.54 47.86 33.18 47.86 38.88 47.86 40.61 49.59 43.31 46.9 40.61 44.21"/>
      </g>
    </g>
  </g>
</svg>
