<svg id="Layer_1" data-name="Layer 1" xmlns="http://www.w3.org/2000/svg" viewBox="0 0 124.98 219.1">
  <defs>
    <style>
      .cls-1 {
        fill: #735545;
      }

      .cls-2 {
        fill: #5c4033;
      }

      .cls-3 {
        fill: none;
      }

      .cls-4 {
        fill: #3e3e48;
      }

      .cls-5 {
        fill: #2d2e39;
      }

      .cls-6 {
        fill: #bab9b5;
      }

      .cls-7 {
        fill: #a3a2a1;
      }

      .cls-8 {
        fill: #cfcdc6;
      }

      .cls-9 {
        fill: #e0e0dc;
      }

      .cls-10 {
        fill: #e64d3c;
      }

      .cls-11 {
        fill: #cc3e36;
      }

      .cls-12 {
        fill: #c9c3bb;
      }

      .cls-13 {
        fill: #b0a79a;
      }

      .cls-14 {
        fill: #b5aea4;
      }

      .cls-15 {
        fill: #e1cbb9;
      }

      .cls-16 {
        fill: #cdae98;
      }

      .cls-17 {
        fill: #cb8e7e;
      }

      .cls-18 {
        fill: #b27669;
      }

      .cls-19 {
        fill: #393631;
      }

      .cls-20 {
        fill: #484642;
      }

      .cls-21 {
        fill: #f0c419;
      }

      .cls-22 {
        fill: #f29d1f;
      }

      .cls-23 {
        fill: #e57e25;
      }

      .cls-24 {
        fill: #d15627;
      }

      .cls-25 {
        fill: #c03b2b;
      }
    </style>
  </defs>
  <title>molay</title>
  <g>
    <g>
      <g>
        <polygon class="cls-1" points="37.52 8.7 37.52 201.08 61.85 201.08 61.85 0 37.52 8.7"/>
        <polygon class="cls-2" points="61.85 0 61.85 201.08 86.19 201.08 86.19 7.56 61.85 0"/>
      </g>
      <g>
        <g>
          <polygon class="cls-3" points="93.97 86.38 67.47 98.09 61.85 100.61 86.19 89.82 93.97 86.38"/>
          <polygon class="cls-4" points="53 74.64 35.94 81.87 29.74 86.38 56.24 98.09 61.85 100.61 61.85 75.79 53 74.64"/>
          <polygon class="cls-5" points="93.97 86.38 87.77 81.87 70.71 74.64 61.85 75.79 61.85 100.61 67.47 98.09 93.97 86.38"/>
          <polygon class="cls-6" points="103.25 102.27 93.97 86.38 86.19 89.82 86.19 141.17 100.02 128.62 103.25 102.27"/>
          <polygon class="cls-7" points="29.74 86.38 20.46 102.27 23.69 128.62 37.52 141.17 37.52 89.82 29.74 86.38"/>
          <polygon class="cls-8" points="57.71 133.53 55.63 133.53 58.06 131.76 59.7 128.58 59.83 121.27 52.52 121.4 49.34 123.03 47.58 125.46 47.58 123.38 47.58 119.24 47.58 115.09 47.58 113.01 49.34 115.44 52.52 117.07 59.83 117.2 59.7 109.88 58.06 106.7 55.63 104.93 57.71 104.93 61.85 104.93 61.85 100.61 37.52 89.82 37.52 141.17 37.52 166.59 61.85 175.37 61.85 133.53 57.71 133.53"/>
          <polygon class="cls-9" points="61.85 100.61 61.85 104.93 61.86 104.93 66.01 104.93 68.08 104.93 65.66 106.7 64.02 109.88 63.89 117.2 71.19 117.07 74.37 115.44 76.13 113.01 76.13 115.09 76.13 119.24 76.13 123.38 76.13 125.46 74.37 123.03 71.19 121.4 63.89 121.27 64.02 128.58 65.66 131.76 68.08 133.53 66.01 133.53 61.86 133.53 61.85 133.53 61.85 175.37 86.19 166.59 86.19 141.17 86.19 89.82 61.85 100.61"/>
          <polygon class="cls-10" points="55.63 104.93 58.06 106.7 59.7 109.88 59.83 117.2 52.52 117.07 49.34 115.44 47.58 113.01 47.58 115.09 47.58 119.24 47.58 123.38 47.58 125.46 49.34 123.03 52.52 121.4 59.83 121.27 59.7 128.58 58.06 131.76 55.63 133.53 57.71 133.53 61.85 133.53 61.85 104.93 57.71 104.93 55.63 104.93"/>
          <polygon class="cls-11" points="61.86 133.53 66.01 133.53 68.08 133.53 65.66 131.76 64.02 128.58 63.89 121.27 71.19 121.4 74.37 123.03 76.13 125.46 76.13 123.38 76.13 119.24 76.13 115.09 76.13 113.01 74.37 115.44 71.19 117.07 63.89 117.2 64.02 109.88 65.66 106.7 68.08 104.93 66.01 104.93 61.86 104.93 61.85 104.93 61.85 133.53 61.86 133.53"/>
        </g>
        <g>
          <g>
            <g>
              <polygon class="cls-12" points="81.64 72.78 81.64 65.95 78.05 59.27 78.05 54.69 74.42 43.83 61.85 43.83 61.85 84.11 62.78 88.55 65.45 89.75 69.11 87.87 70.17 83.13 70.17 74.82 84.53 80.52 81.64 72.78"/>
              <polygon class="cls-13" points="53.54 83.13 54.6 87.87 53.54 83.13 53.54 83.13"/>
              <polygon class="cls-14" points="49.29 43.83 45.66 54.69 45.66 59.26 42.07 65.95 42.07 72.78 39.18 80.52 53.54 74.82 53.54 83.13 54.6 87.87 58.26 89.75 60.93 88.55 61.85 84.11 61.85 43.83 49.29 43.83"/>
            </g>
            <path class="cls-15" d="M315.14,327.6l-3.41-1.74-6-1.23-6,1.23-3.41,1.74-3.2,3.56v4.51l1.5,7,.2,4,3.7,8.38S303,352,303.16,352l2.61-.06,2.61.06c.2,0,4.55,2.92,4.55,2.92l3.7-8.38.2-4,1.5-7v-4.51Z" transform="translate(-243.91 -287.33)"/>
            <path class="cls-16" d="M315.14,327.6l-3.41-1.74-6-1.23V352l2.61.06c.2,0,4.55,2.92,4.55,2.92l3.7-8.38.2-4,1.5-7v-4.51Z" transform="translate(-243.91 -287.33)"/>
          </g>
          <g>
            <polygon class="cls-17" points="59.24 64.72 61.8 66.79 64.47 64.72 61.85 59.38 59.24 64.72"/>
            <polygon class="cls-18" points="61.85 59.38 59.24 64.72 61.8 66.79 61.85 66.75 61.85 59.38"/>
            <polygon class="cls-19" points="52.62 52.44 53.47 51.31 58.62 49.34 59.69 50.12 52.62 52.44"/>
            <polygon class="cls-20" points="56.07 55.48 54.49 55.07 55.09 54.41 57.05 54.41 57.65 55.07 56.07 55.48"/>
            <polygon class="cls-20" points="67.64 55.42 66.06 55.01 66.66 54.35 68.61 54.35 69.22 55.01 67.64 55.42"/>
            <polygon class="cls-19" points="71.09 52.44 70.24 51.32 65.09 49.33 64.02 50.11 71.09 52.44"/>
          </g>
        </g>
      </g>
    </g>
    <g>
      <g>
        <g>
          <polygon class="cls-21" points="50.05 141.84 53.19 131.64 37.68 138.8 45.43 155.75 37.33 163.48 30.82 159.04 29.22 145.65 0 144.26 17.26 155.75 11.17 174.41 25.26 203.71 61.64 214.95 61.64 155.75 50.05 141.84"/>
          <polygon class="cls-22" points="123.28 144.26 94.06 145.65 92.46 159.04 85.95 163.48 77.85 155.75 85.6 138.8 70.1 131.64 73.23 141.84 61.64 155.75 61.64 214.95 98.02 203.71 112.11 174.41 106.02 155.75 123.28 144.26"/>
        </g>
        <g>
          <polygon class="cls-23" points="50.05 145.98 53.19 135.79 37.68 142.94 45.43 159.9 37.33 167.63 30.82 163.19 29.22 149.79 0 148.41 17.26 159.9 11.17 178.56 25.26 207.85 61.64 219.1 61.64 159.9 50.05 145.98"/>
          <polygon class="cls-24" points="123.28 148.41 94.06 149.79 92.46 163.19 85.95 167.63 77.85 159.9 85.6 142.94 70.1 135.79 73.23 145.98 61.64 159.9 61.64 219.1 98.02 207.85 112.11 178.56 106.02 159.9 123.28 148.41"/>
        </g>
        <g>
          <polygon class="cls-10" points="54.02 171 56.08 164.29 45.88 169 50.98 180.15 45.65 185.24 41.37 182.32 40.31 173.51 21.09 172.6 32.45 180.15 28.44 192.43 37.71 211.7 61.64 219.1 61.64 180.15 54.02 171"/>
          <polygon class="cls-25" points="102.19 172.6 82.97 173.51 81.92 182.32 77.64 185.24 72.3 180.15 77.4 169 67.2 164.29 69.27 171 61.64 180.15 61.64 219.1 85.57 211.7 94.84 192.43 90.83 180.15 102.19 172.6"/>
        </g>
      </g>
      <polygon class="cls-22" points="107.57 135.15 124.97 128.14 107.57 131.34 107.57 135.15"/>
      <polygon class="cls-21" points="17.41 135.15 0 128.14 17.41 131.34 17.41 135.15"/>
      <polygon class="cls-21" points="10.82 122.92 13.82 126.64 15.59 122.92 10.82 122.92"/>
      <polygon class="cls-22" points="112.34 122.92 109.34 126.64 107.57 122.92 112.34 122.92"/>
    </g>
  </g>
</svg>
