<svg id="Layer_1" data-name="Layer 1" xmlns="http://www.w3.org/2000/svg" viewBox="0 0 44.96 53.69">
  <defs>
    <style>
      .cls-1 {
        fill: #f0c419;
      }

      .cls-2 {
        fill: #576d7d;
      }

      .cls-3 {
        fill: #f29d1f;
      }

      .cls-4 {
        fill: #3d5264;
      }
    </style>
  </defs>
  <title>money_bag</title>
  <g id="Bag_o_Money" data-name="Bag o Money">
    <polygon class="cls-1" points="16.33 14.21 24.16 14.21 36.13 24.05 43.51 35.01 44.96 44.85 33.89 53.69 10.74 53.69 0 45.75 0.67 33.95 7.05 24.39 16.33 14.21"/>
    <polygon class="cls-2" points="15.66 11.86 24.83 11.86 24.16 14.21 16.33 14.21 15.66 11.86"/>
    <path class="cls-1" d="M299,381.86c0-.45-3.74-11.86-3.74-11.86l9.17,2.11,2.1,1.93,3.7-.74-2.06,8.56Z" transform="translate(-283.39 -370)"/>
    <polygon class="cls-3" points="20.25 14.21 28.48 25.83 31.71 35.72 27.44 46.76 10.74 53.69 33.89 53.69 44.96 44.85 43.51 35.01 36.13 24.05 24.16 14.21 20.25 14.21"/>
    <polygon class="cls-3" points="21.09 2.11 23.19 4.03 26.89 3.3 24.83 11.86 20.25 11.86 22.02 6.98 21.09 2.11"/>
    <polygon class="cls-4" points="20.25 11.86 19.41 13.03 20.25 14.21 24.16 14.21 24.83 11.86 20.25 11.86"/>
  </g>
</svg>
