<svg id="Layer_1" data-name="Layer 1" xmlns="http://www.w3.org/2000/svg" viewBox="0 0 246.02 246.02">
  <defs>
    <style>
      .cls-1 {
        fill: #fff;
        opacity: 0;
      }

      .cls-2 {
        fill: #f0c419;
      }

      .cls-3 {
        fill: #576d7d;
      }

      .cls-4 {
        fill: #f29d1f;
      }

      .cls-5 {
        fill: #3d5264;
      }
    </style>
  </defs>
  <title>money_bag2</title>
  <rect class="cls-1" width="246.02" height="246.02"/>
  <g id="Bag_o_Money" data-name="Bag o Money">
    <polygon class="cls-2" points="95.3 66.08 130.57 66.08 184.48 110.42 217.73 159.79 224.28 204.13 174.4 243.94 70.11 243.94 21.74 208.16 24.76 155.01 53.48 111.93 95.3 66.08"/>
    <polygon class="cls-3" points="92.27 55.5 133.59 55.5 130.57 66.08 95.3 66.08 92.27 55.5"/>
    <path class="cls-2" d="M252.61,296.51c0-2-16.83-53.42-16.83-53.42l41.29,9.49,9.47,8.68,16.67-3.32-9.28,38.56Z" transform="translate(-160.34 -241.02)"/>
    <polygon class="cls-4" points="112.93 66.08 150.03 118.43 164.58 162.99 145.34 212.72 70.11 243.94 174.4 243.94 224.28 204.13 217.73 159.79 184.48 110.42 130.57 66.08 112.93 66.08"/>
    <polygon class="cls-4" points="116.73 11.57 126.2 20.25 142.87 16.93 133.59 55.5 112.93 55.5 120.95 33.53 116.73 11.57"/>
    <polygon class="cls-5" points="112.93 55.5 109.16 60.79 112.93 66.08 130.57 66.08 133.59 55.5 112.93 55.5"/>
  </g>
</svg>
