<svg id="Layer_1" data-name="Layer 1" xmlns="http://www.w3.org/2000/svg" viewBox="0 0 124.83 72.01">
  <defs>
    <style>
      .cls-1 {
        fill: #83d2ed;
      }

      .cls-2 {
        fill: #e0e1e0;
      }

      .cls-3 {
        fill: #f3f3f3;
      }

      .cls-4 {
        fill: #f0c419;
      }

      .cls-5 {
        fill: #f2d65f;
      }

      .cls-6 {
        fill: #e64d3c;
      }

      .cls-7 {
        fill: #cc3e36;
      }
    </style>
  </defs>
  <title>oath</title>
  <g>
    <polygon class="cls-1" points="116.27 0 81.98 0 42.84 0 8.56 0 0 10.85 0 36.01 0 61.16 8.56 72.01 42.84 72.01 81.98 72.01 116.27 72.01 124.83 61.16 124.83 36.01 124.83 10.85 116.27 0"/>
    <polygon class="cls-2" points="65.8 32.63 97.16 0 116.27 0 124.83 10.85 65.8 32.63"/>
    <polygon class="cls-3" points="65.8 32.63 107.63 0.06 116.27 0 120.23 5.03 65.8 32.63"/>
    <polygon class="cls-2" points="59.04 32.63 27.66 0.06 8.56 0.06 0 10.9 59.04 32.63"/>
    <polygon class="cls-3" points="59.04 32.63 17.19 0.11 8.56 0.06 4.59 5.08 59.04 32.63"/>
    <polygon class="cls-2" points="65.8 39.4 97.16 71.98 116.27 71.98 124.83 61.14 65.8 39.4"/>
    <polygon class="cls-3" points="65.8 39.4 107.63 71.93 116.27 71.98 120.23 66.95 65.8 39.4"/>
    <polygon class="cls-2" points="59.04 39.4 27.66 71.93 8.56 71.93 0 61.08 59.04 39.4"/>
    <polygon class="cls-3" points="59.04 39.4 17.19 71.87 8.56 71.93 4.59 66.9 59.04 39.4"/>
    <g>
      <path class="cls-4" d="M317.21,377.15H294.93l-11.14,19.29,11.14,19.29h22.28l11.14-19.29ZM313.89,410H298.26l-7.81-13.53,7.81-13.53h15.63l7.81,13.53Z" transform="translate(-243.66 -360.8)"/>
      <polygon class="cls-5" points="70.23 22.11 54.6 22.11 46.78 35.64 54.6 49.17 70.23 49.17 78.04 35.64 70.23 22.11"/>
    </g>
    <g>
      <polygon class="cls-6" points="83.26 29.69 77.96 32.41 65.8 32.63 66.02 20.43 68.75 15.13 72.79 12.19 69.33 12.19 62.42 12.19 55.51 12.19 52.05 12.19 56.09 15.13 58.82 20.43 59.04 32.63 59.04 32.63 59.04 32.63 46.86 32.41 41.57 29.69 38.63 25.65 38.63 29.11 38.63 36.02 38.63 42.93 38.63 46.39 41.57 42.34 46.86 39.62 59.04 39.4 58.82 51.59 56.09 56.88 52.05 59.82 55.51 59.82 62.42 59.82 69.33 59.82 72.79 59.82 68.75 56.88 66.02 51.59 65.8 39.4 77.96 39.62 83.26 42.34 86.2 46.39 86.2 42.93 86.2 36.02 86.2 29.11 86.2 25.65 83.26 29.69"/>
      <polygon class="cls-7" points="83.26 29.69 77.96 32.41 65.8 32.63 66.02 20.43 68.75 15.13 72.79 12.19 69.33 12.19 62.42 12.19 62.41 12.19 62.41 59.82 62.42 59.82 69.33 59.82 72.79 59.82 68.75 56.88 66.02 51.59 65.8 39.4 77.96 39.62 83.26 42.34 86.2 46.39 86.2 42.93 86.2 36.02 86.2 29.11 86.2 25.65 83.26 29.69"/>
    </g>
  </g>
</svg>
