<svg id="Layer_1" data-name="Layer 1" xmlns="http://www.w3.org/2000/svg" viewBox="0 0 64.03 74.91">
  <defs>
    <style>
      .cls-1 {
        fill: #576d7d;
      }

      .cls-2 {
        fill: #e2e2e2;
      }

      .cls-3 {
        fill: #cc3e36;
      }

      .cls-4 {
        fill: #c7a994;
      }

      .cls-5 {
        fill: #b27669;
      }

      .cls-6 {
        fill: #c4bfb7;
      }

      .cls-7 {
        fill: #cb8e7e;
      }

      .cls-8 {
        fill: #484642;
      }

      .cls-9 {
        fill: #363534;
      }

      .cls-10 {
        fill: #f29d1f;
      }

      .cls-11 {
        fill: #969696;
      }

      .cls-12 {
        fill: #dc8927;
      }

      .cls-13 {
        fill: #ad8e79;
      }

      .cls-14 {
        fill: #aaa399;
      }

      .cls-15 {
        fill: #7c7b7b;
      }

      .cls-16 {
        fill: #b72c29;
      }
    </style>
  </defs>
  <title>pope</title>
  <g>
    <polygon class="cls-1" points="40.6 0 55.45 10.04 64.03 27.42 64.03 47.49 55.45 64.88 40.6 74.91 23.44 74.91 8.58 64.88 0 47.49 0 27.42 8.58 10.04 23.44 0 40.6 0"/>
    <g>
      <g>
        <g>
          <path class="cls-2" d="M310.08,383.56" transform="translate(-274.33 -358.98)"/>
          <polygon class="cls-3" points="55.83 45.44 52.13 38.73 44.78 31.42 40.12 28.38 39.55 27.24 38.6 26.69 37.16 25.98 37.23 31.51 33.2 36.6 29.46 38.11 27.21 37.92 24.86 38.3 22.67 36.9 20.84 31.98 18.28 34.7 12.04 44.1 8.96 53.1 7.19 62.05 8.58 64.88 23.44 74.91 40.59 74.91 51.33 67.66 55.45 64.88 57.51 56.03 55.83 45.44"/>
        </g>
        <g>
          <polygon class="cls-4" points="27.5 5.26 33.42 5.89 37.81 8.76 39.34 17.83 38.86 19.45 37.05 25.47 32.16 32.73 23.87 33.4 20.35 30.65 18.81 25.85 17.57 16.21 20.07 8.21 27.5 5.26"/>
          <polygon id="Ear" class="cls-5" points="39.68 19.63 37.65 19.36 35.72 24.54 37.16 25.98 39.68 23.5 39.68 19.63"/>
          <polygon class="cls-6" points="22.47 26.48 28.45 26.3 30.65 30.61 34.57 27.82 35.72 24.54 37.16 25.98 37.23 31.51 33.2 36.6 29.46 38.11 27.21 37.92 24.86 38.3 22.67 36.9 20.35 30.65 22.47 26.48"/>
          <g>
            <g id="Nose">
              <polygon class="cls-7" points="25.02 20.82 23.67 24.62 25.35 26.69 26.79 24.45 25.02 20.82"/>
              <polygon class="cls-5" points="25.02 20.82 25.35 26.69 26.79 24.45 25.02 20.82"/>
            </g>
            <polygon class="cls-8" points="28.66 20.24 29.71 19.65 29.27 18.77 27.95 18.81 27.56 19.72 28.66 20.24"/>
            <polygon class="cls-8" points="21.2 20.54 20.11 20.02 20.49 19.1 21.82 19.06 22.26 19.95 21.2 20.54"/>
            <polygon class="cls-9" points="18.93 17.83 19.45 17.19 22.73 16.7 23.46 17.43 18.93 17.83"/>
            <polygon class="cls-9" points="30.72 17.5 30.17 16.89 26.87 16.58 26.18 17.34 30.72 17.5"/>
          </g>
        </g>
        <polygon class="cls-10" points="38.6 26.69 39.55 27.24 40.12 28.38 39.34 36.02 38.6 43.89 21.17 43.89 20.35 32.5 20.84 31.98 22.07 35.29 22.8 41.88 36.04 41.64 38.14 32.02 38.83 28.35 38.6 26.69"/>
        <polygon class="cls-11" points="37.16 25.98 38.6 26.69 38.83 28.35 36.31 41.64 22.8 41.88 22.07 35.29 22.67 36.9 24.86 38.3 27.21 37.92 29.46 38.11 33.2 36.6 37.23 31.51 37.16 25.98"/>
        <polygon class="cls-12" points="43.62 30.66 44.78 31.42 44.78 35.29 44.22 39.56 42.38 39.11 43.08 35.18 43.62 30.66"/>
        <polygon class="cls-10" points="18.93 46.45 18.14 37.45 18.28 34.7 16.66 37.14 16.53 38.05 17.23 46.71 18.93 46.45"/>
        <polygon class="cls-13" points="32.52 15.91 33.2 22.67 31.34 30.12 34.57 27.82 37.49 19.8 33.78 20.63 32.52 15.91"/>
        <polygon class="cls-14" points="31.34 30.12 29.46 38.11 33.2 36.6 37.23 31.51 37.16 25.98 35.75 24.58 34.57 27.82 31.34 30.12"/>
        <polygon class="cls-15" points="37.16 25.98 38.6 26.69 38.83 28.35 36.31 41.64 27.82 41.79 30.23 37.8 33.2 36.6 37.23 31.51 37.16 25.98"/>
        <polygon class="cls-16" points="40.12 28.38 43.62 30.66 43.08 35.18 42.38 39.11 44.22 39.56 44.78 35.29 44.78 31.42 52.13 38.73 55.83 45.44 59.37 56.94 55.45 64.88 40.59 74.91 49.02 65.63 50.59 57.47 48.4 48.47 46.09 43.89 44.21 42.2 40.75 39.56 39.11 38.3 40.12 28.38"/>
        <polygon class="cls-14" points="38.48 8.89 33.42 5.89 33.42 8.3 31.34 11.5 33.78 20.63 38.73 19.52 39.68 19.63 39.68 23.5 37.16 25.98 38.6 26.69 40.75 23.75 40.93 14.49 38.48 8.89"/>
      </g>
      <polygon class="cls-12" points="39.2 37.38 37.55 35.11 38.83 28.35 38.6 26.69 39.55 27.24 40.12 28.38 39.2 37.38"/>
    </g>
  </g>
</svg>
