<svg id="Layer_1" data-name="Layer 1" xmlns="http://www.w3.org/2000/svg" viewBox="0 0 180.24 103.98">
  <defs>
    <style>
      .cls-1 {
        fill: #576d7d;
      }

      .cls-2 {
        fill: #644c2a;
      }

      .cls-3 {
        fill: #50391e;
      }

      .cls-4 {
        fill: #d58428;
      }

      .cls-5 {
        fill: #f29d1f;
      }

      .cls-6 {
        fill: #e64d3c;
        opacity: 0.85;
      }

      .cls-7 {
        fill: #cfcfce;
      }

      .cls-8 {
        fill: #b5b6b6;
      }

      .cls-9 {
        fill: #1e2628;
      }

      .cls-10 {
        fill: #364a5e;
      }
    </style>
  </defs>
  <title>refrain</title>
  <g>
    <polygon class="cls-1" points="167.88 0 118.37 0 61.86 0 12.36 0 0 15.66 0 51.99 0 88.32 12.36 103.97 61.86 103.97 118.37 103.97 167.88 103.97 180.24 88.32 180.24 51.99 180.24 15.66 167.88 0"/>
    <g>
      <g>
        <g>
          <g>
            <polygon class="cls-2" points="29.13 39 29.13 40.89 28.11 46.57 26.66 51.09 26.66 66.72 27.25 67.86 31.01 67.86 31.01 39 29.13 39"/>
            <polygon class="cls-2" points="34.76 67.86 35.36 66.72 34.76 67.86 34.76 67.86"/>
            <polygon class="cls-2" points="33.91 46.57 35.36 51.09 33.91 46.57 32.88 40.89 32.88 39 32.88 39 32.88 40.89 33.91 46.57"/>
            <polygon class="cls-3" points="33.91 46.57 32.88 40.89 32.88 39 31.01 39 31.01 67.86 34.76 67.86 35.36 66.72 35.36 51.09 33.91 46.57"/>
          </g>
          <g>
            <polygon class="cls-4" points="29.1 35.86 29.1 38.02 31.01 38.02 31.01 35.56 29.1 35.86"/>
            <polygon class="cls-5" points="31.01 35.56 31.01 38.02 32.91 38.02 32.91 35.86 31.01 35.56"/>
          </g>
          <g>
            <polygon class="cls-5" points="29.13 39 29.13 40.89 28.61 43.8 31.01 43.8 31.01 39 29.13 39"/>
            <polygon class="cls-4" points="32.88 40.89 32.88 39 31.01 39 31.01 43.8 33.41 43.8 32.88 40.89"/>
          </g>
          <g>
            <rect class="cls-4" x="27.5" y="54.13" width="3.51" height="10.24"/>
            <rect class="cls-5" x="31.01" y="54.13" width="3.51" height="10.24"/>
          </g>
        </g>
        <path class="cls-6" d="M226,375.06l-12.24,3.28-9,9-3.28,12.24,3.28,12.24,9,9L226,424l12.24-3.28,9-9,3.28-12.24-3.28-12.24-9-9Zm0,46.1-10.81-2.9-7.91-7.91-2.9-10.81,2.9-10.81,2.94-2.94,29.53,29.53-2.94,2.94Zm18.72-32.42,2.9,10.81-2.9,10.81-2.94,2.94-29.53-29.53,2.94-2.94,10.81-2.9,10.81,2.9Z" transform="translate(-194.98 -347.55)"/>
      </g>
      <g>
        <g>
          <g>
            <rect class="cls-7" x="89.32" y="52.25" width="13.48" height="13.48"/>
            <rect class="cls-8" x="96.06" y="52.25" width="6.74" height="13.48"/>
            <polygon class="cls-9" points="93 54.81 93.56 55.21 93.77 55.86 93.56 56.51 93 56.91 92.32 56.91 91.77 56.51 91.56 55.86 91.77 55.21 92.32 54.81 93 54.81"/>
            <polygon class="cls-9" points="96.4 57.94 96.95 58.34 97.17 58.99 96.95 59.64 96.4 60.05 95.72 60.05 95.17 59.64 94.95 58.99 95.17 58.34 95.72 57.94 96.4 57.94"/>
            <polygon class="cls-9" points="99.8 54.81 100.35 55.21 100.56 55.86 100.35 56.51 99.8 56.91 99.12 56.91 98.56 56.51 98.35 55.86 98.56 55.21 99.12 54.81 99.8 54.81"/>
            <polygon class="cls-9" points="99.8 61.07 100.35 61.47 100.56 62.12 100.35 62.77 99.8 63.17 99.12 63.17 98.56 62.77 98.35 62.12 98.56 61.47 99.12 61.07 99.8 61.07"/>
            <polygon class="cls-9" points="93 61.07 93.56 61.47 93.77 62.12 93.56 62.77 93 63.17 92.32 63.17 91.77 62.77 91.56 62.12 91.77 61.47 92.32 61.07 93 61.07"/>
          </g>
          <g>
            <rect class="cls-7" x="272.55" y="386.56" width="11.65" height="11.65" transform="translate(-360.48 -140.71) rotate(-31.96)"/>
            <polygon class="cls-8" points="81.54 52.85 85.26 36.8 91.43 46.69 81.54 52.85"/>
            <polygon class="cls-9" points="83.11 43.76 83.79 43.79 84.32 44.22 84.51 44.88 84.27 45.52 83.7 45.89 83.02 45.87 82.48 45.44 82.3 44.78 82.53 44.14 83.11 43.76"/>
            <polygon class="cls-9" points="84.2 39.27 84.88 39.3 85.42 39.73 85.6 40.39 85.37 41.03 84.8 41.41 84.11 41.38 83.58 40.95 83.39 40.3 83.63 39.65 84.2 39.27"/>
            <polygon class="cls-9" points="82.01 48.25 82.69 48.28 83.23 48.7 83.41 49.36 83.17 50.01 82.6 50.38 81.92 50.35 81.39 49.93 81.2 49.27 81.44 48.63 82.01 48.25"/>
          </g>
        </g>
        <path class="cls-6" d="M285.09,375.06l-12.24,3.28-9,9-3.28,12.24,3.28,12.24,9,9L285.09,424l12.24-3.28,9-9,3.28-12.24-3.28-12.24-9-9Zm0,46.1-10.81-2.9-7.91-7.91-2.9-10.81,2.9-10.81,2.94-2.94,29.53,29.53-2.94,2.94Zm18.72-32.42,2.9,10.81-2.9,10.81-2.94,2.94-29.53-29.53,2.94-2.94,10.81-2.9,10.81,2.9Z" transform="translate(-194.98 -347.55)"/>
      </g>
      <g>
        <g>
          <rect class="cls-10" x="153.09" y="49.94" width="0.65" height="1.68"/>
          <polygon class="cls-10" points="144.53 49.66 145.69 49.66 145.82 48.52 144.66 48.52 144.53 49.66"/>
          <rect class="cls-10" x="149.59" y="46.55" width="0.65" height="1.68"/>
          <path class="cls-10" d="M345.84,383.38,331,387.64,328.83,400l4.31,6-3.59,6.5,7.3-5,7.34,3.27,14.3-5.63,1.09-15.1ZM336.64,400h-1.29v-1.32h1.29Zm.07-5.81-.31,3.85h-.8l-.31-3.85v-1h1.42Zm6.38,1.85H341.8l-.12,1.12H343l-.11.92h-1.34l-.22,1.92h-1l.21-1.92h-1.13L339.2,400h-1l.21-1.92h-1.33l.13-.92h1.3l.13-1.12h-1.38l.12-.93h1.37l.22-1.92h1l-.21,1.92h1.12l.22-1.92h1l-.22,1.92h1.31Zm.51-2,.72-.88h1.84v2.53l-.67.88H343.6Zm.39,5.57,4.8-6.49.55.38-4.86,6.52Zm5.68-.52L349,400h-1.85v-2.53l.67-.88h1.89Zm3.23.88h-1.38v-1.32h1.38Zm1.1-4-1.15,1.15v.84h-1.29v-1.23l1-1.08v-1.29h-.87v.77h-1.38v-2H353l1,.94Z" transform="translate(-194.98 -347.55)"/>
        </g>
        <path class="cls-6" d="M344.2,375.06,332,378.34l-9,9-3.28,12.24L323,411.78l9,9L344.2,424l12.24-3.28,9-9,3.28-12.24L365.4,387.3l-9-9Zm0,46.1-10.81-2.9-7.91-7.91-2.9-10.81,2.9-10.81,2.94-2.94L358,415.32,355,418.26Zm18.72-32.42,2.9,10.81-2.9,10.81L360,413.29l-29.53-29.53,2.94-2.94,10.81-2.9,10.81,2.9Z" transform="translate(-194.98 -347.55)"/>
      </g>
    </g>
  </g>
</svg>
