<svg id="Layer_1" data-name="Layer 1" xmlns="http://www.w3.org/2000/svg" viewBox="0 0 61.08 61.21">
  <defs>
    <style>
      .cls-1 {
        fill: #576d7d;
      }

      .cls-2 {
        fill: #3d5264;
      }

      .cls-3 {
        fill: #fff;
      }

      .cls-4 {
        fill: #cdae98;
      }

      .cls-5 {
        fill: #bc9d88;
      }

      .cls-6 {
        fill: #494237;
      }

      .cls-7 {
        fill: #cb8e7e;
      }

      .cls-8 {
        fill: #b27669;
      }

      .cls-9 {
        fill: #484642;
      }

      .cls-10 {
        fill: #1e2628;
      }

      .cls-11 {
        fill: #303a3e;
      }

      .cls-12 {
        fill: #cc3e36;
      }

      .cls-13 {
        fill: #e64d3c;
      }

      .cls-14 {
        fill: none;
      }

      .cls-15 {
        fill: #464f52;
      }
    </style>
  </defs>
  <title>sergeant</title>
  <g>
    <g>
      <polygon class="cls-1" points="43.19 0 30.54 0 30.54 61.08 43.19 61.08 61.08 43.19 61.08 17.89 43.19 0"/>
      <polygon class="cls-2" points="17.89 0 0 17.89 0 43.19 17.89 61.08 17.91 61.1 30.54 61.1 30.54 61.08 30.54 0 17.89 0"/>
    </g>
    <g>
      <polygon class="cls-3" points="30.54 4.21 22 6.73 17.66 12.33 17.66 40.34 13.77 41.83 9.2 45.79 6.84 50.02 17.84 61.2 30.55 50.02 30.54 4.21"/>
      <polygon class="cls-3" points="51.91 45.8 47.34 41.84 43.45 40.35 43.45 12.34 39.11 6.74 30.57 4.22 30.55 50.03 43.27 61.21 54.27 50.03 51.91 45.8"/>
    </g>
    <g>
      <g>
        <polygon class="cls-4" points="21.09 22.55 21.09 31.8 23.42 38.94 30.55 42.89 30.55 42.84 30.55 22.55 21.09 22.55"/>
        <polygon class="cls-5" points="30.55 22.5 30.55 22.55 30.55 42.84 37.68 38.89 40 31.75 40 22.5 30.55 22.5"/>
      </g>
      <g>
        <polygon class="cls-6" points="23.37 27.53 24.14 26.86 27.87 26.32 28.41 27.08 23.37 27.53"/>
        <polygon class="cls-6" points="37.72 27.46 36.92 26.81 33.19 26.39 32.67 27.16 37.72 27.46"/>
        <polygon class="cls-7" points="28.56 36.35 30.51 37.92 32.54 36.35 30.55 32.3 28.56 36.35"/>
        <polygon class="cls-8" points="30.55 32.3 28.56 36.35 30.51 37.92 30.55 37.89 30.55 32.3"/>
        <polygon class="cls-9" points="26.14 30.15 24.93 29.53 25.39 28.52 26.88 28.52 27.34 29.53 26.14 30.15"/>
        <polygon class="cls-9" points="34.97 30.15 36.17 29.53 35.71 28.52 34.22 28.52 33.76 29.53 34.97 30.15"/>
      </g>
      <g>
        <polygon class="cls-10" points="43.18 61.2 53.5 50.89 51.51 46.92 51.49 46.98 49.85 51.92 30.55 60.97 30.55 61.2 43.18 61.2"/>
        <polygon class="cls-11" points="51.46 46.92 49.8 51.92 30.53 60.97 11.25 51.92 9.59 46.92 7.58 50.94 17.84 61.2 30.55 61.2 30.55 60.97 49.85 51.92 51.49 46.98 51.46 46.92"/>
      </g>
      <g>
        <polygon class="cls-12" points="30.55 52.41 30.55 61.2 33.61 61.2 33.61 50.02 30.55 52.41"/>
        <polygon class="cls-13" points="27.5 50.02 27.5 61.2 30.55 61.2 30.55 52.41 27.5 50.02"/>
      </g>
      <g>
        <polygon class="cls-14" points="28.74 22.6 21.09 22.55 21.09 31.8 23.42 38.94 30.55 42.84 37.68 38.94 40 31.8 40 22.55 32.36 22.6 32.36 29.96 30.55 31 28.74 29.96 28.74 22.6"/>
        <polygon class="cls-15" points="23.42 38.94 21.09 31.8 21.09 22.55 28.74 22.6 28.74 29.96 30.55 31 30.55 5.3 22.08 7.9 18.95 12.58 18.95 41.31 14.06 42.89 9.59 46.92 11.25 51.92 30.55 60.97 30.55 42.84 23.42 38.94"/>
        <polygon class="cls-11" points="47.03 42.89 42.14 41.31 42.14 12.58 39.02 7.9 30.55 5.3 30.55 31 32.36 29.96 32.36 22.6 40 22.55 40 31.8 37.68 38.94 30.55 42.84 30.55 60.97 49.84 51.92 51.51 46.92 47.03 42.89"/>
      </g>
    </g>
  </g>
</svg>
