<svg id="Layer_1" data-name="Layer 1" xmlns="http://www.w3.org/2000/svg" viewBox="0 0 158.41 158.41">
  <defs>
    <style>
      .cls-1 {
        fill: #fff;
        opacity: 0;
      }

      .cls-2 {
        fill: #a69b7e;
      }

      .cls-3 {
        opacity: 0.5;
      }

      .cls-4 {
        fill: #c9c3bb;
      }

      .cls-5 {
        fill: #b0a79a;
      }

      .cls-6 {
        fill: #b5aea4;
      }

      .cls-7 {
        fill: #e1cbb9;
      }

      .cls-8 {
        fill: #cdae98;
      }

      .cls-9 {
        fill: #cb8e7e;
      }

      .cls-10 {
        fill: #b27669;
      }

      .cls-11 {
        fill: #393631;
      }

      .cls-12 {
        fill: #484642;
      }

      .cls-13 {
        fill: #8e836a;
      }
    </style>
  </defs>
  <title>shroud</title>
  <rect class="cls-1" width="158.41" height="158.41"/>
  <g>
    <polygon class="cls-2" points="17.97 4.51 22.23 22.9 22.23 153.9 140.44 153.9 140.44 22.9 130.88 4.51 17.97 4.51"/>
    <g class="cls-3">
      <g>
        <g>
          <polygon class="cls-4" points="123.64 105.53 123.64 91.34 116.18 77.44 116.18 67.93 108.63 45.37 82.52 45.37 82.52 129.09 84.43 138.31 89.99 140.79 97.6 136.91 99.79 127.04 99.79 109.78 129.64 121.63 123.64 105.53"/>
          <polygon class="cls-5" points="65.24 127.04 67.43 136.91 65.24 127.04 65.24 127.04"/>
          <polygon class="cls-6" points="56.4 45.37 48.85 67.93 48.85 77.44 41.39 91.34 41.39 105.53 35.39 121.63 65.24 109.78 65.24 127.04 67.43 136.91 75.04 140.79 80.6 138.31 82.52 129.09 82.52 45.37 56.4 45.37"/>
        </g>
        <path class="cls-7" d="M318,323.87l-7.09-3.62-12.38-2.57-12.38,2.57L279,323.87l-6.64,7.4v9.37l3.13,14.46.41,8.24,7.7,17.43s9.05-6.08,9.46-6.08,5.43-.14,5.43-.14,5,.14,5.43.14,9.46,6.08,9.46,6.08l7.7-17.43.41-8.24,3.13-14.46v-9.37Z" transform="translate(-215.99 -285.9)"/>
        <path class="cls-8" d="M318,323.87l-7.09-3.62-12.38-2.57v56.86s5,.14,5.43.14,9.46,6.08,9.46,6.08l7.7-17.43.41-8.24,3.13-14.46v-9.37Z" transform="translate(-215.99 -285.9)"/>
      </g>
      <g>
        <polygon class="cls-9" points="77.09 88.78 82.4 93.08 87.94 88.78 82.52 77.68 77.09 88.78"/>
        <polygon class="cls-10" points="82.52 77.68 77.09 88.78 82.4 93.08 82.52 92.99 82.52 77.68"/>
        <polygon class="cls-11" points="63.32 63.25 65.09 60.92 75.8 56.8 78.02 58.42 63.32 63.25"/>
        <polygon class="cls-12" points="70.49 69.57 67.21 68.72 68.46 67.34 72.52 67.34 73.78 68.72 70.49 69.57"/>
        <polygon class="cls-12" points="94.54 69.45 91.26 68.6 92.51 67.23 96.57 67.23 97.82 68.6 94.54 69.45"/>
        <polygon class="cls-11" points="101.71 63.26 99.94 60.92 89.24 56.8 87.01 58.41 101.71 63.26"/>
      </g>
    </g>
    <polygon class="cls-13" points="17.97 4.51 22.23 22.9 140.44 22.9 130.88 4.51 17.97 4.51"/>
  </g>
</svg>
