<svg id="Layer_1" data-name="Layer 1" xmlns="http://www.w3.org/2000/svg" viewBox="0 0 249 249">
  <defs>
    <style>
      .cls-1 {
        fill: #fff;
      }

      .cls-2 {
        fill: #e6cf5d;
      }

      .cls-3 {
        fill: #f7df79;
      }

      .cls-4 {
        fill: #848484;
      }

      .cls-5 {
        fill: #d2d2d2;
      }

      .cls-6 {
        fill: #898989;
      }

      .cls-7 {
        fill: #b0b0b0;
      }

      .cls-8 {
        fill: #e64d3c;
      }

      .cls-9 {
        fill: #cc3e36;
      }

      .cls-10 {
        fill: #404040;
      }

      .cls-11 {
        fill: #505050;
      }

      .cls-12 {
        fill: #c2c1c1;
      }

      .cls-13 {
        fill: #b72e2c;
      }

      .cls-14 {
        fill: none;
      }

      .cls-15 {
        fill: #303a3e;
      }

      .cls-16 {
        fill: #464f52;
      }

      .cls-17 {
        fill: #f0c419;
      }

      .cls-18 {
        fill: #f29d1f;
      }
    </style>
  </defs>
  <title>soldier</title>
  <rect class="cls-1" width="249" height="249"/>
  <g>
    <g>
      <g>
        <polygon class="cls-2" points="119.28 158.9 119.28 158.9 119.28 158.9 119.28 158.9"/>
        <path class="cls-2" d="M329.45,429.51l-14.64-9.34v20.69h0V420.16l-14.64,9.34-21.41,8.05L284,479.12l9.4,25.85,21.45,11.84v0L336.27,505l9.4-25.85,5.19-41.56Zm-34.89,34.63-1.72,2.43,1.72-2.43L291.62,460Zm-2.94,4.15h0ZM318.76,460h0V437.77h0ZM338,468.29H318.76V490.5h0V468.29H338l-2.94-4.15L338,460h0l-2.94,4.15Z" transform="translate(-190.31 -272.56)"/>
        <polygon class="cls-3" points="124.5 147.6 139.14 156.94 160.54 165 155.36 206.56 145.95 232.41 124.5 244.25 124.5 147.6"/>
      </g>
      <g>
        <polygon class="cls-4" points="124.5 150.92 124.5 150.92 124.5 150.92 124.5 150.92"/>
        <polygon class="cls-5" points="124.5 213.56 120.82 216.43 120.82 195.74 102.9 195.74 105.64 191.87 102.9 188 120.82 188 120.82 167.31 124.5 170.19 124.5 150.92 110.87 159.62 90.93 167.12 95.76 205.83 104.52 229.91 124.5 240.93 124.5 213.56 124.5 213.56"/>
        <path class="cls-6" d="M343.55,478.39" transform="translate(-190.31 -272.56)"/>
        <polygon class="cls-7" points="124.5 213.56 128.18 216.43 128.18 195.74 146.1 195.74 143.36 191.87 146.1 188 128.18 188 128.18 167.31 124.5 170.19 124.5 150.92 138.13 159.62 158.07 167.12 153.24 205.83 144.48 229.91 124.5 240.93 124.5 213.56 124.5 213.56"/>
        <polygon class="cls-8" points="149.78 187.69 128.81 187.69 128.81 163.47 128.85 153.69 124.5 150.92 120.19 153.67 120.19 163.47 120.19 187.69 99.22 187.69 93.5 187.69 94.63 196.75 99.22 196.75 120.19 196.75 120.19 220.97 120.19 238.56 124.5 240.93 124.5 217.6 124.5 217.6 124.5 217.6 124.5 240.93 128.81 238.56 128.81 220.97 128.81 196.75 149.78 196.75 154.37 196.75 155.5 187.69 149.78 187.69"/>
        <polygon class="cls-9" points="120.19 153.67 124.5 150.92 124.5 240.93 120.19 238.56 120.19 196.75 94.63 196.75 93.5 187.69 120.19 187.69 120.19 153.67"/>
      </g>
    </g>
    <g>
      <polygon class="cls-10" points="87.68 121.47 93.96 127.1 96.03 133.01 108.45 145.43 116.14 145.43 119.98 157.26 106.72 157.26 105.76 151.35 86.33 137.75 87.68 121.47"/>
      <polygon class="cls-11" points="160.89 121.47 154.62 127.1 152.55 133.01 140.13 145.43 132.44 145.43 128.59 157.26 141.86 157.26 142.82 151.35 162.25 137.75 160.89 121.47"/>
      <g>
        <polygon class="cls-12" points="209.93 194.91 194.55 127.49 192.44 131.14 185 112.65 168.99 119.09 170.05 114.65 166.21 112.18 182.22 105.73 174.79 87.25 178.78 88.4 168.55 69.95 146.13 60.03 144.79 64.98 124.5 69.95 136.18 91.93 159.32 108.77 165.59 185.84 159.32 233.77 209.93 194.91"/>
        <polygon class="cls-13" points="182.22 105.73 166.21 112.18 170.05 114.65 168.99 119.09 185 112.65 192.44 131.14 194.55 127.49 194.56 127.49 190.38 109.18 178.88 88.43 178.78 88.4 174.79 87.25 182.22 105.73"/>
      </g>
      <g>
        <polygon class="cls-5" points="104.21 64.98 102.86 60.03 80.45 69.95 70.07 88.67 74.17 87.48 66.73 105.97 82.74 112.41 78.91 114.89 79.96 119.33 63.95 112.89 56.51 131.37 54.4 127.72 39.07 194.91 89.68 233.77 83.42 185.84 89.68 108.77 112.82 91.93 124.5 69.95 104.21 64.98"/>
        <polygon class="cls-9" points="63.95 112.89 79.96 119.33 78.91 114.89 82.74 112.41 66.73 105.97 74.17 87.48 70.07 88.67 70.07 88.67 58.57 109.42 54.4 127.72 54.4 127.72 56.51 131.37 63.95 112.89"/>
      </g>
      <g>
        <polygon class="cls-14" points="106.72 35.3 124.5 35.3 142.28 35.3 142.28 32.52 124.5 32.52 106.72 32.52 106.72 35.3"/>
        <path class="cls-15" d="M297,305.08h17.78V277.31l-14.45,3.07-8.92,6.91v39.37l3.07,11.05,20.29,4.84V307.86H297Zm2.18,21v1.19h-2.67v4.26h-1.19v-4.26h-2.67v-1.19h2.67v-4.26h1.19v4.26Z" transform="translate(-190.31 -272.56)"/>
        <path class="cls-16" d="M329.26,280.38l-14.45-3.07v27.77h17.78v2.78H314.81v34.68l20.29-4.84,3.07-11.05V287.29Zm8,46.89h-2.67v4.26h-1.19v-4.26h-2.67v-1.19h2.67v-4.26h1.19v4.26h2.67Z" transform="translate(-190.31 -272.56)"/>
      </g>
      <polygon class="cls-12" points="89.68 233.77 83.42 185.84 66.17 155.53 89.68 233.77"/>
      <polygon class="cls-7" points="159.4 233.77 165.67 185.84 182.91 155.53 159.4 233.77"/>
      <g>
        <polygon class="cls-17" points="120.15 70.31 110.74 70.31 107.89 67.45 103.45 71.9 107.89 76.34 110.74 73.49 120.15 73.49 124.5 73.49 124.5 70.31 120.15 70.31"/>
        <polygon class="cls-18" points="141.11 67.45 138.26 70.31 124.5 70.3 124.5 70.31 124.5 73.49 128.85 73.49 138.26 73.49 141.11 76.34 145.55 71.9 141.11 67.45"/>
      </g>
    </g>
  </g>
</svg>
