<?xml version="1.0" encoding="utf-8"?>
<!-- Generator: Adobe Illustrator 20.1.0, SVG Export Plug-In . SVG Version: 6.00 Build 0)  -->
<svg version="1.1" id="Layer_1" xmlns="http://www.w3.org/2000/svg" xmlns:xlink="http://www.w3.org/1999/xlink" x="0px" y="0px"
	 viewBox="0 0 249 249" style="enable-background:new 0 0 249 249;" xml:space="preserve">
<style type="text/css">
	.st0{fill:#E6CF5D;}
	.st1{fill:#F7DF79;}
	.st2{fill:#848484;}
	.st3{fill:#D2D2D2;}
	.st4{fill:#898989;}
	.st5{fill:#B0B0B0;}
	.st6{fill:#E64D3C;}
	.st7{fill:#CC3E36;}
	.st8{fill:#404040;}
	.st9{fill:#505050;}
	.st10{fill:#C2C1C1;}
	.st11{fill:#B72E2C;}
	.st12{fill:none;}
	.st13{fill:#303A3E;}
	.st14{fill:#464F52;}
	.st15{fill:#F0C419;}
	.st16{fill:#F29D1F;}
</style>
<title>soldier</title>
<g>
	<g>
		<g>
			<polygon class="st0" points="119.3,158.9 119.3,158.9 119.3,158.9 			"/>
			<path class="st0" d="M139.1,157l-14.6-9.3v20.7l0,0v-20.7l-14.6,9.3l-21.4,8l5.2,41.6l9.4,25.9l21.5,11.8l0,0l21.4-11.8l9.4-25.9
				l5.2-41.6L139.1,157z M104.3,191.6l-1.7,2.4L104.3,191.6l-2.9-4.1L104.3,191.6z M101.3,195.7L101.3,195.7z M128.5,187.4
				L128.5,187.4v-22.2l0,0V187.4z M147.7,195.7h-19.2v22.2l0,0v-22.2H147.7l-2.9-4.1l2.9-4.1l0,0l-2.9,4.1L147.7,195.7z"/>
			<polygon class="st1" points="124.5,147.6 139.1,156.9 160.5,165 155.4,206.6 145.9,232.4 124.5,244.3 			"/>
		</g>
		<g>
			<polygon class="st2" points="124.5,150.9 124.5,150.9 124.5,150.9 			"/>
			<polygon class="st3" points="124.5,213.6 120.8,216.4 120.8,195.7 102.9,195.7 105.6,191.9 102.9,188 120.8,188 120.8,167.3 
				124.5,170.2 124.5,150.9 110.9,159.6 90.9,167.1 95.8,205.8 104.5,229.9 124.5,240.9 124.5,213.6 			"/>
			<path class="st4" d="M153.2,205.8"/>
			<polygon class="st5" points="124.5,213.6 128.2,216.4 128.2,195.7 146.1,195.7 143.4,191.9 146.1,188 128.2,188 128.2,167.3 
				124.5,170.2 124.5,150.9 138.1,159.6 158.1,167.1 153.2,205.8 144.5,229.9 124.5,240.9 124.5,213.6 			"/>
			<polygon class="st6" points="149.8,187.7 128.8,187.7 128.8,163.5 128.9,153.7 124.5,150.9 120.2,153.7 120.2,163.5 120.2,187.7 
				99.2,187.7 93.5,187.7 94.6,196.8 99.2,196.8 120.2,196.8 120.2,221 120.2,238.6 124.5,240.9 124.5,217.6 124.5,217.6 
				124.5,217.6 124.5,240.9 128.8,238.6 128.8,221 128.8,196.8 149.8,196.8 154.4,196.8 155.5,187.7 			"/>
			<polygon class="st7" points="120.2,153.7 124.5,150.9 124.5,240.9 120.2,238.6 120.2,196.8 94.6,196.8 93.5,187.7 120.2,187.7 
							"/>
		</g>
	</g>
	<g>
		<polygon class="st8" points="87.7,121.5 94,127.1 96,133 108.4,145.4 116.1,145.4 120,157.3 106.7,157.3 105.8,151.4 86.3,137.8 
					"/>
		<polygon class="st9" points="160.9,121.5 154.6,127.1 152.6,133 140.1,145.4 132.4,145.4 128.6,157.3 141.9,157.3 142.8,151.4 
			162.3,137.8 		"/>
		<g>
			<polygon class="st10" points="209.9,194.9 194.6,127.5 192.4,131.1 185,112.7 169,119.1 170.1,114.7 166.2,112.2 182.2,105.7 
				174.8,87.3 178.8,88.4 168.6,69.9 146.1,60 144.8,65 124.5,69.9 136.2,91.9 159.3,108.8 165.6,185.8 159.3,233.8 			"/>
			<polygon class="st11" points="182.2,105.7 166.2,112.2 170.1,114.7 169,119.1 185,112.7 192.4,131.1 194.6,127.5 194.6,127.5 
				190.4,109.2 178.9,88.4 178.8,88.4 174.8,87.3 			"/>
		</g>
		<g>
			<polygon class="st3" points="104.2,65 102.9,60 80.4,69.9 70.1,88.7 74.2,87.5 66.7,106 82.7,112.4 78.9,114.9 80,119.3 
				64,112.9 56.5,131.4 54.4,127.7 39.1,194.9 89.7,233.8 83.4,185.8 89.7,108.8 112.8,91.9 124.5,69.9 			"/>
			<polygon class="st7" points="64,112.9 80,119.3 78.9,114.9 82.7,112.4 66.7,106 74.2,87.5 70.1,88.7 70.1,88.7 58.6,109.4 
				54.4,127.7 54.4,127.7 56.5,131.4 			"/>
		</g>
		<g>
			<polygon class="st12" points="106.7,35.3 124.5,35.3 142.3,35.3 142.3,32.5 124.5,32.5 106.7,32.5 			"/>
			<path class="st13" d="M106.7,32.5h17.8V4.8L110,7.8l-8.9,6.9v39.4l3.1,11l20.3,4.8V35.3h-17.8V32.5z M108.9,53.5v1.2h-2.7V59H105
				v-4.3h-2.7v-1.2h2.7v-4.3h1.2v4.3H108.9z"/>
			<path class="st14" d="M139,7.8l-14.5-3.1v27.8h17.8v2.8h-17.8V70l20.3-4.8l3.1-11V14.7L139,7.8z M147,54.7h-2.7V59h-1.2v-4.3
				h-2.7v-1.2h2.7v-4.3h1.2v4.3h2.7V54.7z"/>
		</g>
		<polygon class="st10" points="89.7,233.8 83.4,185.8 66.2,155.5 		"/>
		<polygon class="st5" points="159.4,233.8 165.7,185.8 182.9,155.5 		"/>
		<g>
			<polygon class="st15" points="120.2,70.3 110.7,70.3 107.9,67.4 103.4,71.9 107.9,76.3 110.7,73.5 120.2,73.5 124.5,73.5 
				124.5,70.3 			"/>
			<polygon class="st16" points="141.1,67.4 138.3,70.3 124.5,70.3 124.5,70.3 124.5,73.5 128.9,73.5 138.3,73.5 141.1,76.3 
				145.6,71.9 			"/>
		</g>
	</g>
</g>
</svg>
