<svg id="Layer_1" data-name="Layer 1" xmlns="http://www.w3.org/2000/svg" viewBox="0 0 67.31 67.44">
  <defs>
    <style>
      .cls-1 {
        fill: #17a186;
      }

      .cls-2 {
        fill: #1a8c75;
      }

      .cls-3 {
        fill: #c2c1c1;
      }

      .cls-4 {
        fill: #d2d2d2;
      }

      .cls-5 {
        fill: #f29d1f;
      }

      .cls-6 {
        fill: #f0c419;
      }

      .cls-7 {
        fill: #1e2628;
      }

      .cls-8 {
        fill: #303a3e;
      }

      .cls-9 {
        fill: #e64d3c;
      }

      .cls-10 {
        fill: #b72e2c;
      }

      .cls-11 {
        fill: #cc3e36;
      }

      .cls-12 {
        fill: #15806b;
      }

      .cls-13 {
        fill: #fff;
      }
    </style>
  </defs>
  <title>sword_ground</title>
  <g>
    <g>
      <polygon class="cls-1" points="59.58 54.41 51.13 46.94 32.26 44.77 24.46 51.99 20.41 57.96 17.54 67.44 61.63 67.44 67.14 67.44 59.58 54.41"/>
      <polygon class="cls-2" points="24.46 51.99 32.26 44.77 16.01 48.03 4.84 57.12 0 67.44 17.54 67.44 20.41 57.96 24.46 51.99"/>
    </g>
    <g>
      <g>
        <polygon class="cls-3" points="43.23 18.05 34.48 39.02 34.66 39.04 34.31 39.43 27.43 55.91 27.38 62.77 45.62 19.05 43.23 18.05"/>
        <polygon class="cls-4" points="48.01 20.05 45.62 19.05 27.38 62.77 32.22 57.91 36.11 48.57 35.69 47.12 36.84 46.84 43.16 31.69 42.6 30.87 43.47 30.93 48.01 20.05"/>
      </g>
      <g>
        <polygon class="cls-5" points="46.57 19.66 51.08 21.54 51.67 20.12 46.14 17.82 45.19 20.09 46.57 19.66"/>
        <polygon class="cls-6" points="44.52 18.8 45.19 20.09 46.14 17.82 40.6 15.51 40.01 16.92 44.52 18.8"/>
      </g>
      <g>
        <polygon class="cls-7" points="48.9 18.97 49.02 16.45 50.24 13.53 48.27 12.71 46.14 17.82 48.9 18.97"/>
        <polygon class="cls-8" points="46.14 17.82 48.27 12.71 46.29 11.88 45.07 14.8 43.37 16.66 46.14 17.82"/>
      </g>
      <g>
        <rect class="cls-5" x="404.03" y="414.61" width="1.14" height="2.14" transform="translate(-489.95 225.92) rotate(-67.35)"/>
        <rect class="cls-6" x="402.05" y="413.78" width="1.14" height="2.14" transform="translate(-490.4 223.58) rotate(-67.35)"/>
      </g>
      <g>
        <polygon class="cls-7" points="50.34 7.75 48.71 11.65 50.68 12.48 52.57 7.96 51.49 8.23 50.34 7.75"/>
        <polygon class="cls-8" points="49.18 7.27 48.62 6.31 46.73 10.83 48.71 11.65 50.34 7.75 49.18 7.27"/>
        <polygon class="cls-6" points="50.34 7.75 51.49 8.23 52.57 7.96 53.93 7.62 55.58 5.67 55.81 3.13 54.52 0.96 53.37 0.48 50.59 7.14 50.34 7.75"/>
        <polygon class="cls-5" points="47.9 5.1 48.62 6.31 49.18 7.27 50.34 7.75 50.59 7.14 53.37 0.48 52.22 0 49.77 0.61 48.12 2.56 47.9 5.1"/>
      </g>
      <g>
        <polygon class="cls-9" points="67.31 19.05 56.67 16.99 55.81 20.09 67.31 22.19 65.29 20.09 67.31 19.05"/>
        <rect class="cls-10" x="401.2" y="415.11" width="3.16" height="4.28" transform="translate(-492.52 225.2) rotate(-67.35)"/>
        <polygon class="cls-11" points="50.24 13.53 49.02 16.45 55.81 20.09 56.67 16.99 50.24 13.53"/>
      </g>
    </g>
    <polygon class="cls-1" points="24.89 52.68 27.8 55.4 30.46 55.4 30.46 56.48 35.83 56.48 31.06 64.63 22.86 64.63 24.89 52.68"/>
    <polygon class="cls-12" points="38.69 53.15 39.71 53.6 52.57 48.21 51.13 46.94 46.14 46.37 35.32 50.47 32.81 56.48 38.46 54.12 38.69 53.15"/>
    <polygon class="cls-13" points="46.62 13.98 47.42 14.32 47.03 15.25 47.25 15.19 47.36 15.38 47.75 14.46 48.55 14.8 48.5 14.58 48.69 14.46 47.9 14.12 48.29 13.2 48.07 13.25 47.96 13.06 47.57 13.98 46.77 13.64 46.82 13.86 46.62 13.98"/>
  </g>
</svg>
