<?xml version="1.0" encoding="utf-8"?>
<!-- Generator: Adobe Illustrator 20.1.0, SVG Export Plug-In . SVG Version: 6.00 Build 0)  -->
<svg version="1.1" id="Layer_1" xmlns="http://www.w3.org/2000/svg" xmlns:xlink="http://www.w3.org/1999/xlink" x="0px" y="0px"
	 viewBox="0 0 92.2 63.2" style="enable-background:new 0 0 92.2 63.2;" xml:space="preserve">
<style type="text/css">
	.st0{fill:#3B5163;}
	.st1{fill:#E74C3C;}
	.st2{fill:#CC3D36;}
	.st3{fill:#D1D1D1;}
	.st4{fill:#C1C1C1;}
	.st5{fill:#F39C12;}
	.st6{fill:#F1C40F;}
	.st7{fill:#1D2628;}
	.st8{fill:#303A3D;}
	.st9{fill:url(#SVGID_1_);}
</style>
<title>Asset 2</title>
<g id="Layer_2">
	<g id="Downfall">
		<rect class="st0" width="92.2" height="63.2"/>
		<g>
			<polygon class="st1" points="66.2,25.5 61.1,28.1 49.4,28.4 49.6,16.6 52.2,11.5 56.1,8.7 52.8,8.7 46.1,8.7 39.5,8.7 36.1,8.7 
				40,11.5 42.7,16.6 42.9,28.4 42.9,28.4 42.9,28.4 31.1,28.1 26.1,25.5 23.2,21.6 23.2,25 23.2,31.6 23.2,38.3 23.2,41.6 
				26.1,37.7 31.1,35.1 42.9,34.9 42.7,46.6 40,51.7 36.1,54.5 39.5,54.5 46.1,54.5 52.8,54.5 56.1,54.5 52.2,51.7 49.6,46.6 
				49.4,34.9 61.1,35.1 66.2,37.7 69,41.6 69,38.3 69,31.6 69,25 69,21.6 			"/>
			<polygon class="st2" points="66.2,25.5 61.1,28.1 49.4,28.4 49.6,16.6 52.2,11.5 56.1,8.7 52.8,8.7 46.1,8.7 46.1,8.7 46.1,54.5 
				46.1,54.5 52.8,54.5 56.1,54.5 52.2,51.7 49.6,46.6 49.4,34.9 61.1,35.1 66.2,37.7 69,41.6 69,38.3 69,31.6 69,25 69,21.6 			"/>
		</g>
		<g>
			<g>
				<g>
					<polygon class="st3" points="61.8,12.7 36.7,37.8 38.3,39.4 67.3,10.4 					"/>
					<polygon class="st4" points="67.3,10.4 38.3,39.4 39.9,41 65,15.9 					"/>
				</g>
				<g>
					<polygon class="st5" points="37.8,38.6 34.8,35.6 33.8,36.5 37.5,40.2 39,38.7 					"/>
					<polygon class="st6" points="39.1,39.9 39,38.7 37.5,40.2 41.2,43.8 42.1,42.9 					"/>
				</g>
				<g>
					<polygon class="st7" points="35.7,38.4 34.8,40.3 32.8,42.3 34.1,43.6 37.5,40.2 					"/>
					<polygon class="st8" points="37.5,40.2 34.1,43.6 35.4,44.9 37.4,43 39.3,42 					"/>
				</g>
				<g>
					
						<rect x="32.6" y="42.3" transform="matrix(0.7071 -0.7071 0.7071 0.7071 -20.8921 36.0395)" class="st5" width="1" height="1.8"/>
					
						<rect x="33.9" y="43.7" transform="matrix(0.7071 -0.7071 0.7071 0.7071 -21.4692 37.4113)" class="st6" width="1" height="1.8"/>
				</g>
				<g>
					<polygon class="st7" points="30.9,46.8 33.4,44.3 32.1,43 29.1,46 30.1,46.1 					"/>
					<polygon class="st8" points="31.6,47.6 31.8,48.6 34.7,45.6 33.4,44.3 30.9,46.8 					"/>
					<polygon class="st6" points="30.9,46.8 30.1,46.1 29.1,46 27.9,45.8 26,46.8 25,48.8 25.3,50.9 26,51.7 30.4,47.3 					"/>
					<polygon class="st5" points="31.9,49.8 31.8,48.6 31.6,47.6 30.9,46.8 30.4,47.3 26,51.7 26.8,52.4 29,52.7 30.9,51.7 					"/>
				</g>
			</g>
			<g>
				<g>
					<polygon class="st3" points="27.3,15.9 52.3,41 53.9,39.4 25,10.4 					"/>
					<polygon class="st4" points="25,10.4 53.9,39.4 55.5,37.8 30.4,12.7 					"/>
				</g>
				<g>
					<polygon class="st5" points="53.1,39.9 50.1,42.9 51,43.8 54.7,40.2 53.2,38.7 					"/>
					<polygon class="st6" points="54.5,38.6 53.2,38.7 54.7,40.2 58.4,36.5 57.4,35.6 					"/>
				</g>
				<g>
					<polygon class="st7" points="52.9,42 54.8,43 56.8,44.9 58.1,43.6 54.7,40.2 					"/>
					<polygon class="st8" points="54.7,40.2 58.1,43.6 59.4,42.3 57.5,40.3 56.5,38.4 					"/>
				</g>
				<g>
					
						<rect x="56.9" y="44.1" transform="matrix(0.7071 -0.7071 0.7071 0.7071 -14.595 53.9376)" class="st5" width="1.8" height="1"/>
					
						<rect x="58.2" y="42.8" transform="matrix(0.7071 -0.7071 0.7071 0.7071 -13.2956 54.4813)" class="st6" width="1.8" height="1"/>
				</g>
				<g>
					<polygon class="st7" points="61.4,46.8 58.8,44.3 57.5,45.6 60.5,48.6 60.6,47.6 					"/>
					<polygon class="st8" points="62.1,46.1 63.1,46 60.1,43 58.8,44.3 61.4,46.8 					"/>
					<polygon class="st6" points="61.4,46.8 60.6,47.6 60.5,48.6 60.3,49.8 61.3,51.7 63.3,52.7 65.4,52.4 66.2,51.7 61.8,47.3 
											"/>
					<polygon class="st5" points="64.3,45.8 63.1,46 62.1,46.1 61.4,46.8 61.8,47.3 66.2,51.7 66.9,50.9 67.3,48.8 66.3,46.8 					
						"/>
				</g>
			</g>
		</g>
	</g>
</g>
<linearGradient id="SVGID_1_" gradientUnits="userSpaceOnUse" x1="-359.88" y1="436.82" x2="-359.88" y2="500.02" gradientTransform="matrix(-1 0 0 1 -313.78 -436.82)">
	<stop  offset="0.1505" style="stop-color:#000000;stop-opacity:0"/>
	<stop  offset="1" style="stop-color:#000000;stop-opacity:0.4"/>
</linearGradient>
<polygon class="st9" points="0,0 92.2,0 92.2,63.2 0,63.2 "/>
</svg>
